<mxfile host="app.diagrams.net" modified="2023-06-14T11:22:52.772Z" agent="Mozilla/5.0 (Windows NT 10.0; Win64; x64) AppleWebKit/537.36 (KHTML, like Gecko) Chrome/114.0.0.0 Safari/537.36" etag="IkO_u7z-tOp_1XOWOT2F" version="21.3.8" type="device">
  <diagram id="CJvEdSKLIJBnoUxgqjxI" name="Страница 1">
    <mxGraphModel dx="994" dy="3660" grid="1" gridSize="10" guides="1" tooltips="1" connect="1" arrows="1" fold="1" page="1" pageScale="1" pageWidth="827" pageHeight="1169" math="0" shadow="0">
      <root>
        <mxCell id="0" />
        <mxCell id="1" parent="0" />
        <mxCell id="2j8hGIhh0hBBkrBzc8hK-1" value="" style="group" parent="1" vertex="1" connectable="0">
          <mxGeometry x="3259" y="20" width="120" height="140" as="geometry" />
        </mxCell>
        <mxCell id="2j8hGIhh0hBBkrBzc8hK-2" value="" style="sketch=0;pointerEvents=1;shadow=0;dashed=0;html=1;strokeColor=none;fillColor=#E6E6E6;labelPosition=center;verticalLabelPosition=bottom;verticalAlign=top;align=center;outlineConnect=0;shape=mxgraph.veeam2.server;rounded=0;fontFamily=Helvetica;fontSize=13;fontColor=default;movable=1;resizable=1;rotatable=1;deletable=1;editable=1;connectable=1;" parent="2j8hGIhh0hBBkrBzc8hK-1" vertex="1">
          <mxGeometry width="120" height="140" as="geometry" />
        </mxCell>
        <mxCell id="2j8hGIhh0hBBkrBzc8hK-3" value="" style="group;movable=1;resizable=1;rotatable=1;deletable=1;editable=1;connectable=1;" parent="2j8hGIhh0hBBkrBzc8hK-1" vertex="1" connectable="0">
          <mxGeometry x="20" y="10" width="80" height="120" as="geometry" />
        </mxCell>
        <mxCell id="2j8hGIhh0hBBkrBzc8hK-4" value="" style="rounded=1;whiteSpace=wrap;html=1;fontSize=15;fillColor=#D5E8D4;movable=1;resizable=1;rotatable=1;deletable=1;editable=1;connectable=1;container=0;strokeColor=#006600;" parent="2j8hGIhh0hBBkrBzc8hK-3" vertex="1">
          <mxGeometry width="80" height="120" as="geometry" />
        </mxCell>
        <mxCell id="2j8hGIhh0hBBkrBzc8hK-5" value="&lt;div style=&quot;&quot;&gt;&lt;span style=&quot;font-size: 15px; background-color: initial;&quot;&gt;partition &lt;b&gt;A&lt;/b&gt;&lt;/span&gt;&lt;/div&gt;" style="text;html=1;strokeColor=none;fillColor=none;align=center;verticalAlign=middle;whiteSpace=wrap;rounded=0;movable=1;resizable=1;rotatable=1;deletable=1;editable=1;connectable=1;container=0;" parent="2j8hGIhh0hBBkrBzc8hK-3" vertex="1">
          <mxGeometry width="80" height="20" as="geometry" />
        </mxCell>
        <mxCell id="2j8hGIhh0hBBkrBzc8hK-6" value="&lt;span style=&quot;color: rgb(0, 0, 0); font-family: Helvetica; font-size: 15px; font-style: normal; font-variant-ligatures: normal; font-variant-caps: normal; letter-spacing: normal; orphans: 2; text-align: center; text-indent: 0px; text-transform: none; widows: 2; word-spacing: 0px; -webkit-text-stroke-width: 0px; background-color: initial; text-decoration-thickness: initial; text-decoration-style: initial; text-decoration-color: initial;&quot;&gt;version &lt;b&gt;1&lt;/b&gt;&lt;/span&gt;" style="text;html=1;strokeColor=none;fillColor=none;align=center;verticalAlign=middle;whiteSpace=wrap;rounded=0;fontSize=15;movable=1;resizable=1;rotatable=1;deletable=1;editable=1;connectable=1;container=0;" parent="2j8hGIhh0hBBkrBzc8hK-3" vertex="1">
          <mxGeometry y="100" width="80" height="20" as="geometry" />
        </mxCell>
        <mxCell id="2j8hGIhh0hBBkrBzc8hK-7" value="" style="aspect=fixed;perimeter=ellipsePerimeter;html=1;align=center;shadow=0;dashed=0;fontColor=#4277BB;labelBackgroundColor=#ffffff;fontSize=12;spacingTop=3;image;image=img/lib/ibm/applications/index.svg;imageBackground=none;movable=1;resizable=1;rotatable=1;deletable=1;editable=1;connectable=1;container=0;" parent="2j8hGIhh0hBBkrBzc8hK-3" vertex="1">
          <mxGeometry y="20" width="80" height="80" as="geometry" />
        </mxCell>
        <mxCell id="2j8hGIhh0hBBkrBzc8hK-8" style="edgeStyle=orthogonalEdgeStyle;rounded=0;orthogonalLoop=1;jettySize=auto;html=1;fontFamily=Helvetica;fontSize=16;fontColor=default;strokeWidth=3;fillColor=#d5e8d4;strokeColor=#82b366;" parent="1" target="2j8hGIhh0hBBkrBzc8hK-2" edge="1">
          <mxGeometry relative="1" as="geometry">
            <mxPoint x="3478" y="260" as="sourcePoint" />
          </mxGeometry>
        </mxCell>
        <mxCell id="2j8hGIhh0hBBkrBzc8hK-9" value="" style="group" parent="1" vertex="1" connectable="0">
          <mxGeometry x="3658" y="20" width="120" height="140" as="geometry" />
        </mxCell>
        <mxCell id="2j8hGIhh0hBBkrBzc8hK-10" value="" style="sketch=0;pointerEvents=1;shadow=0;dashed=0;html=1;strokeColor=none;fillColor=#E6E6E6;labelPosition=center;verticalLabelPosition=bottom;verticalAlign=top;align=center;outlineConnect=0;shape=mxgraph.veeam2.server;rounded=0;fontFamily=Helvetica;fontSize=13;fontColor=default;movable=1;resizable=1;rotatable=1;deletable=1;editable=1;connectable=1;" parent="2j8hGIhh0hBBkrBzc8hK-9" vertex="1">
          <mxGeometry width="120" height="140" as="geometry" />
        </mxCell>
        <mxCell id="2j8hGIhh0hBBkrBzc8hK-11" value="" style="group;movable=1;resizable=1;rotatable=1;deletable=1;editable=1;connectable=1;" parent="2j8hGIhh0hBBkrBzc8hK-9" vertex="1" connectable="0">
          <mxGeometry x="20" y="10" width="80" height="120" as="geometry" />
        </mxCell>
        <mxCell id="2j8hGIhh0hBBkrBzc8hK-12" value="" style="rounded=1;whiteSpace=wrap;html=1;fontSize=15;fillColor=#D5E8D4;movable=0;resizable=0;rotatable=0;deletable=0;editable=0;connectable=0;container=0;strokeColor=#006600;" parent="2j8hGIhh0hBBkrBzc8hK-11" vertex="1">
          <mxGeometry width="80" height="120" as="geometry" />
        </mxCell>
        <mxCell id="2j8hGIhh0hBBkrBzc8hK-13" value="&lt;div style=&quot;&quot;&gt;&lt;span style=&quot;font-size: 15px; background-color: initial;&quot;&gt;partition &lt;b&gt;C&lt;/b&gt;&lt;/span&gt;&lt;/div&gt;" style="text;html=1;strokeColor=none;fillColor=none;align=center;verticalAlign=middle;whiteSpace=wrap;rounded=0;movable=0;resizable=0;rotatable=0;deletable=0;editable=0;connectable=0;container=0;" parent="2j8hGIhh0hBBkrBzc8hK-11" vertex="1">
          <mxGeometry width="80" height="20" as="geometry" />
        </mxCell>
        <mxCell id="2j8hGIhh0hBBkrBzc8hK-14" value="&lt;span style=&quot;color: rgb(0, 0, 0); font-family: Helvetica; font-size: 15px; font-style: normal; font-variant-ligatures: normal; font-variant-caps: normal; letter-spacing: normal; orphans: 2; text-align: center; text-indent: 0px; text-transform: none; widows: 2; word-spacing: 0px; -webkit-text-stroke-width: 0px; background-color: initial; text-decoration-thickness: initial; text-decoration-style: initial; text-decoration-color: initial;&quot;&gt;version &lt;b&gt;1&lt;/b&gt;&lt;/span&gt;" style="text;html=1;strokeColor=none;fillColor=none;align=center;verticalAlign=middle;whiteSpace=wrap;rounded=0;fontSize=15;movable=0;resizable=0;rotatable=0;deletable=0;editable=0;connectable=0;container=0;" parent="2j8hGIhh0hBBkrBzc8hK-11" vertex="1">
          <mxGeometry y="100" width="80" height="20" as="geometry" />
        </mxCell>
        <mxCell id="2j8hGIhh0hBBkrBzc8hK-15" value="" style="aspect=fixed;perimeter=ellipsePerimeter;html=1;align=center;shadow=0;dashed=0;fontColor=#4277BB;labelBackgroundColor=#ffffff;fontSize=12;spacingTop=3;image;image=img/lib/ibm/applications/index.svg;imageBackground=none;movable=0;resizable=0;rotatable=0;deletable=0;editable=0;connectable=0;container=0;" parent="2j8hGIhh0hBBkrBzc8hK-11" vertex="1">
          <mxGeometry y="20" width="80" height="80" as="geometry" />
        </mxCell>
        <mxCell id="2j8hGIhh0hBBkrBzc8hK-16" value="" style="group" parent="1" vertex="1" connectable="0">
          <mxGeometry x="3458" y="20" width="120" height="140" as="geometry" />
        </mxCell>
        <mxCell id="2j8hGIhh0hBBkrBzc8hK-17" value="" style="sketch=0;pointerEvents=1;shadow=0;dashed=0;html=1;strokeColor=none;fillColor=#E6E6E6;labelPosition=center;verticalLabelPosition=bottom;verticalAlign=top;align=center;outlineConnect=0;shape=mxgraph.veeam2.server;rounded=0;fontFamily=Helvetica;fontSize=13;fontColor=default;movable=1;resizable=1;rotatable=1;deletable=1;editable=1;connectable=1;" parent="2j8hGIhh0hBBkrBzc8hK-16" vertex="1">
          <mxGeometry width="120" height="140" as="geometry" />
        </mxCell>
        <mxCell id="2j8hGIhh0hBBkrBzc8hK-18" value="" style="group;movable=1;resizable=1;rotatable=1;deletable=1;editable=1;connectable=1;" parent="2j8hGIhh0hBBkrBzc8hK-16" vertex="1" connectable="0">
          <mxGeometry x="20" y="10" width="80" height="120" as="geometry" />
        </mxCell>
        <mxCell id="2j8hGIhh0hBBkrBzc8hK-19" value="" style="rounded=1;whiteSpace=wrap;html=1;fontSize=15;fillColor=#D5E8D4;movable=0;resizable=0;rotatable=0;deletable=0;editable=0;connectable=0;container=0;strokeColor=#006600;" parent="2j8hGIhh0hBBkrBzc8hK-18" vertex="1">
          <mxGeometry width="80" height="120" as="geometry" />
        </mxCell>
        <mxCell id="2j8hGIhh0hBBkrBzc8hK-20" value="&lt;div style=&quot;&quot;&gt;&lt;span style=&quot;font-size: 15px; background-color: initial;&quot;&gt;partition &lt;b&gt;B&lt;/b&gt;&lt;/span&gt;&lt;/div&gt;" style="text;html=1;strokeColor=none;fillColor=none;align=center;verticalAlign=middle;whiteSpace=wrap;rounded=0;movable=0;resizable=0;rotatable=0;deletable=0;editable=0;connectable=0;container=0;" parent="2j8hGIhh0hBBkrBzc8hK-18" vertex="1">
          <mxGeometry width="80" height="20" as="geometry" />
        </mxCell>
        <mxCell id="2j8hGIhh0hBBkrBzc8hK-21" value="&lt;span style=&quot;color: rgb(0, 0, 0); font-family: Helvetica; font-size: 15px; font-style: normal; font-variant-ligatures: normal; font-variant-caps: normal; letter-spacing: normal; orphans: 2; text-align: center; text-indent: 0px; text-transform: none; widows: 2; word-spacing: 0px; -webkit-text-stroke-width: 0px; background-color: initial; text-decoration-thickness: initial; text-decoration-style: initial; text-decoration-color: initial;&quot;&gt;version &lt;b&gt;1&lt;/b&gt;&lt;/span&gt;" style="text;html=1;strokeColor=none;fillColor=none;align=center;verticalAlign=middle;whiteSpace=wrap;rounded=0;fontSize=15;movable=0;resizable=0;rotatable=0;deletable=0;editable=0;connectable=0;container=0;" parent="2j8hGIhh0hBBkrBzc8hK-18" vertex="1">
          <mxGeometry y="100" width="80" height="20" as="geometry" />
        </mxCell>
        <mxCell id="2j8hGIhh0hBBkrBzc8hK-22" value="" style="aspect=fixed;perimeter=ellipsePerimeter;html=1;align=center;shadow=0;dashed=0;fontColor=#4277BB;labelBackgroundColor=#ffffff;fontSize=12;spacingTop=3;image;image=img/lib/ibm/applications/index.svg;imageBackground=none;movable=0;resizable=0;rotatable=0;deletable=0;editable=0;connectable=0;container=0;" parent="2j8hGIhh0hBBkrBzc8hK-18" vertex="1">
          <mxGeometry y="20" width="80" height="80" as="geometry" />
        </mxCell>
        <mxCell id="2j8hGIhh0hBBkrBzc8hK-23" style="edgeStyle=orthogonalEdgeStyle;rounded=0;orthogonalLoop=1;jettySize=auto;html=1;strokeWidth=3;fontFamily=Helvetica;fontSize=16;fontColor=default;fillColor=#d5e8d4;strokeColor=#82b366;" parent="1" target="2j8hGIhh0hBBkrBzc8hK-17" edge="1">
          <mxGeometry relative="1" as="geometry">
            <mxPoint x="3518" y="200" as="sourcePoint" />
          </mxGeometry>
        </mxCell>
        <mxCell id="2j8hGIhh0hBBkrBzc8hK-24" style="edgeStyle=orthogonalEdgeStyle;rounded=0;orthogonalLoop=1;jettySize=auto;html=1;strokeWidth=3;fontFamily=Helvetica;fontSize=16;fontColor=default;fillColor=#d5e8d4;strokeColor=#82b366;" parent="1" target="2j8hGIhh0hBBkrBzc8hK-10" edge="1">
          <mxGeometry relative="1" as="geometry">
            <mxPoint x="3558" y="260" as="sourcePoint" />
          </mxGeometry>
        </mxCell>
        <mxCell id="2j8hGIhh0hBBkrBzc8hK-52" value="" style="group" parent="1" vertex="1" connectable="0">
          <mxGeometry x="3478" y="200" width="80" height="120" as="geometry" />
        </mxCell>
        <mxCell id="2j8hGIhh0hBBkrBzc8hK-53" value="" style="rounded=1;whiteSpace=wrap;html=1;shadow=0;fontSize=15;movable=1;resizable=1;rotatable=1;deletable=1;editable=1;connectable=1;fillColor=#d5e8d4;strokeColor=#82b366;" parent="2j8hGIhh0hBBkrBzc8hK-52" vertex="1">
          <mxGeometry width="80" height="120" as="geometry" />
        </mxCell>
        <mxCell id="2j8hGIhh0hBBkrBzc8hK-54" value="" style="outlineConnect=0;dashed=0;verticalLabelPosition=bottom;verticalAlign=top;align=center;html=1;shape=mxgraph.aws3.application_load_balancer;fillColor=#F58534;gradientColor=none;fontSize=18;strokeColor=default;shadow=0;movable=1;resizable=1;rotatable=1;deletable=1;editable=1;connectable=1;" parent="2j8hGIhh0hBBkrBzc8hK-52" vertex="1">
          <mxGeometry y="40" width="80" height="80" as="geometry" />
        </mxCell>
        <mxCell id="2j8hGIhh0hBBkrBzc8hK-55" value="&lt;font style=&quot;font-size: 13px;&quot;&gt;PARTICIAN&amp;nbsp;&lt;br&gt;GATEWAY&lt;/font&gt;" style="text;html=1;strokeColor=none;fillColor=none;align=center;verticalAlign=middle;whiteSpace=wrap;rounded=0;shadow=0;fontSize=18;movable=1;resizable=1;rotatable=1;deletable=1;editable=1;connectable=1;" parent="2j8hGIhh0hBBkrBzc8hK-52" vertex="1">
          <mxGeometry width="80" height="40" as="geometry" />
        </mxCell>
        <mxCell id="2j8hGIhh0hBBkrBzc8hK-89" value="Если успешно все поднялось, медленно начинаем перенаправлять трафик на новый кластер и анализируем, что происходит.&amp;nbsp;&lt;span style=&quot;font-size: 20px;&quot;&gt;Начинаем с соотношения 95:5 увеличивем изменяем это соотношение до 5:95. Шаг в 10% каждые10 минут. Если в процессе начинаются выдаваться большое число ошибок, обратно перебрасываем большую часть трафика на старую версию.&amp;nbsp;&lt;/span&gt;&lt;span style=&quot;font-size: 20px;&quot;&gt;&lt;br style=&quot;font-size: 20px;&quot;&gt;&lt;/span&gt;" style="text;html=1;strokeColor=none;fillColor=none;align=center;verticalAlign=middle;whiteSpace=wrap;rounded=0;shadow=0;fontFamily=Helvetica;fontSize=20;fontColor=default;" parent="1" vertex="1">
          <mxGeometry x="2780" y="-50" width="350" height="360" as="geometry" />
        </mxCell>
        <mxCell id="2j8hGIhh0hBBkrBzc8hK-90" value="" style="group" parent="1" vertex="1" connectable="0">
          <mxGeometry x="3780" y="410" width="80" height="120" as="geometry" />
        </mxCell>
        <mxCell id="2j8hGIhh0hBBkrBzc8hK-91" value="" style="rounded=1;whiteSpace=wrap;html=1;shadow=0;fontSize=15;movable=1;resizable=1;rotatable=1;deletable=1;editable=1;connectable=1;fillColor=#d5e8d4;strokeColor=#82b366;" parent="2j8hGIhh0hBBkrBzc8hK-90" vertex="1">
          <mxGeometry width="80" height="120" as="geometry" />
        </mxCell>
        <mxCell id="2j8hGIhh0hBBkrBzc8hK-92" value="" style="outlineConnect=0;dashed=0;verticalLabelPosition=bottom;verticalAlign=top;align=center;html=1;shape=mxgraph.aws3.application_load_balancer;fillColor=#F58534;gradientColor=none;fontSize=18;strokeColor=default;shadow=0;movable=1;resizable=1;rotatable=1;deletable=1;editable=1;connectable=1;" parent="2j8hGIhh0hBBkrBzc8hK-90" vertex="1">
          <mxGeometry y="40" width="80" height="80" as="geometry" />
        </mxCell>
        <mxCell id="2j8hGIhh0hBBkrBzc8hK-93" value="&lt;span style=&quot;font-size: 13px;&quot;&gt;TRAFFIC GATEWAY&lt;/span&gt;" style="text;html=1;strokeColor=none;fillColor=none;align=center;verticalAlign=middle;whiteSpace=wrap;rounded=0;shadow=0;fontSize=18;movable=1;resizable=1;rotatable=1;deletable=1;editable=1;connectable=1;" parent="2j8hGIhh0hBBkrBzc8hK-90" vertex="1">
          <mxGeometry width="80" height="40" as="geometry" />
        </mxCell>
        <mxCell id="2j8hGIhh0hBBkrBzc8hK-94" style="edgeStyle=orthogonalEdgeStyle;rounded=0;orthogonalLoop=1;jettySize=auto;html=1;strokeWidth=3;fontFamily=Helvetica;fontSize=16;fontColor=default;fillColor=#d5e8d4;strokeColor=#82b366;exitX=0.5;exitY=0;exitDx=0;exitDy=0;entryX=0.5;entryY=1;entryDx=0;entryDy=0;" parent="1" source="2j8hGIhh0hBBkrBzc8hK-93" target="2j8hGIhh0hBBkrBzc8hK-53" edge="1">
          <mxGeometry relative="1" as="geometry">
            <mxPoint x="3568" y="270" as="sourcePoint" />
            <mxPoint x="3728" y="170" as="targetPoint" />
          </mxGeometry>
        </mxCell>
        <mxCell id="2j8hGIhh0hBBkrBzc8hK-150" value="" style="group" parent="1" vertex="1" connectable="0">
          <mxGeometry x="3860" y="20" width="120" height="140" as="geometry" />
        </mxCell>
        <mxCell id="2j8hGIhh0hBBkrBzc8hK-151" value="" style="sketch=0;pointerEvents=1;shadow=0;dashed=0;html=1;strokeColor=none;fillColor=#E6E6E6;labelPosition=center;verticalLabelPosition=bottom;verticalAlign=top;align=center;outlineConnect=0;shape=mxgraph.veeam2.server;rounded=0;fontFamily=Helvetica;fontSize=13;fontColor=default;movable=1;resizable=1;rotatable=1;deletable=1;editable=1;connectable=1;" parent="2j8hGIhh0hBBkrBzc8hK-150" vertex="1">
          <mxGeometry width="120" height="140" as="geometry" />
        </mxCell>
        <mxCell id="2j8hGIhh0hBBkrBzc8hK-152" value="" style="group;movable=1;resizable=1;rotatable=1;deletable=1;editable=1;connectable=1;" parent="2j8hGIhh0hBBkrBzc8hK-150" vertex="1" connectable="0">
          <mxGeometry x="20" y="10" width="80" height="120" as="geometry" />
        </mxCell>
        <mxCell id="2j8hGIhh0hBBkrBzc8hK-153" value="" style="rounded=1;whiteSpace=wrap;html=1;fontSize=15;fillColor=#D5E8D4;movable=1;resizable=1;rotatable=1;deletable=1;editable=1;connectable=1;container=0;strokeColor=#006600;" parent="2j8hGIhh0hBBkrBzc8hK-152" vertex="1">
          <mxGeometry width="80" height="120" as="geometry" />
        </mxCell>
        <mxCell id="2j8hGIhh0hBBkrBzc8hK-154" value="&lt;div style=&quot;&quot;&gt;&lt;span style=&quot;font-size: 15px; background-color: initial;&quot;&gt;partition &lt;b&gt;A&lt;/b&gt;&lt;/span&gt;&lt;/div&gt;" style="text;html=1;strokeColor=none;fillColor=none;align=center;verticalAlign=middle;whiteSpace=wrap;rounded=0;movable=1;resizable=1;rotatable=1;deletable=1;editable=1;connectable=1;container=0;" parent="2j8hGIhh0hBBkrBzc8hK-152" vertex="1">
          <mxGeometry width="80" height="20" as="geometry" />
        </mxCell>
        <mxCell id="2j8hGIhh0hBBkrBzc8hK-155" value="&lt;span style=&quot;color: rgb(0, 0, 0); font-family: Helvetica; font-size: 15px; font-style: normal; font-variant-ligatures: normal; font-variant-caps: normal; letter-spacing: normal; orphans: 2; text-align: center; text-indent: 0px; text-transform: none; widows: 2; word-spacing: 0px; -webkit-text-stroke-width: 0px; background-color: initial; text-decoration-thickness: initial; text-decoration-style: initial; text-decoration-color: initial;&quot;&gt;version &lt;b&gt;2&lt;/b&gt;&lt;/span&gt;" style="text;html=1;strokeColor=none;fillColor=none;align=center;verticalAlign=middle;whiteSpace=wrap;rounded=0;fontSize=15;movable=1;resizable=1;rotatable=1;deletable=1;editable=1;connectable=1;container=0;" parent="2j8hGIhh0hBBkrBzc8hK-152" vertex="1">
          <mxGeometry y="100" width="80" height="20" as="geometry" />
        </mxCell>
        <mxCell id="2j8hGIhh0hBBkrBzc8hK-156" value="" style="aspect=fixed;perimeter=ellipsePerimeter;html=1;align=center;shadow=0;dashed=0;fontColor=#4277BB;labelBackgroundColor=#ffffff;fontSize=12;spacingTop=3;image;image=img/lib/ibm/applications/index.svg;imageBackground=none;movable=1;resizable=1;rotatable=1;deletable=1;editable=1;connectable=1;container=0;" parent="2j8hGIhh0hBBkrBzc8hK-152" vertex="1">
          <mxGeometry y="20" width="80" height="80" as="geometry" />
        </mxCell>
        <mxCell id="2j8hGIhh0hBBkrBzc8hK-157" style="edgeStyle=orthogonalEdgeStyle;rounded=0;orthogonalLoop=1;jettySize=auto;html=1;fontFamily=Helvetica;fontSize=16;fontColor=default;strokeWidth=3;fillColor=#d5e8d4;strokeColor=#82b366;" parent="1" target="2j8hGIhh0hBBkrBzc8hK-151" edge="1">
          <mxGeometry relative="1" as="geometry">
            <mxPoint x="4079" y="260" as="sourcePoint" />
          </mxGeometry>
        </mxCell>
        <mxCell id="2j8hGIhh0hBBkrBzc8hK-158" value="" style="group" parent="1" vertex="1" connectable="0">
          <mxGeometry x="4259" y="20" width="120" height="140" as="geometry" />
        </mxCell>
        <mxCell id="2j8hGIhh0hBBkrBzc8hK-159" value="" style="sketch=0;pointerEvents=1;shadow=0;dashed=0;html=1;strokeColor=none;fillColor=#E6E6E6;labelPosition=center;verticalLabelPosition=bottom;verticalAlign=top;align=center;outlineConnect=0;shape=mxgraph.veeam2.server;rounded=0;fontFamily=Helvetica;fontSize=13;fontColor=default;movable=1;resizable=1;rotatable=1;deletable=1;editable=1;connectable=1;" parent="2j8hGIhh0hBBkrBzc8hK-158" vertex="1">
          <mxGeometry width="120" height="140" as="geometry" />
        </mxCell>
        <mxCell id="2j8hGIhh0hBBkrBzc8hK-160" value="" style="group;movable=1;resizable=1;rotatable=1;deletable=1;editable=1;connectable=1;" parent="2j8hGIhh0hBBkrBzc8hK-158" vertex="1" connectable="0">
          <mxGeometry x="20" y="10" width="80" height="120" as="geometry" />
        </mxCell>
        <mxCell id="2j8hGIhh0hBBkrBzc8hK-161" value="" style="rounded=1;whiteSpace=wrap;html=1;fontSize=15;fillColor=#D5E8D4;movable=0;resizable=0;rotatable=0;deletable=0;editable=0;connectable=0;container=0;strokeColor=#006600;" parent="2j8hGIhh0hBBkrBzc8hK-160" vertex="1">
          <mxGeometry width="80" height="120" as="geometry" />
        </mxCell>
        <mxCell id="2j8hGIhh0hBBkrBzc8hK-162" value="&lt;div style=&quot;&quot;&gt;&lt;span style=&quot;font-size: 15px; background-color: initial;&quot;&gt;partition &lt;b&gt;C&lt;/b&gt;&lt;/span&gt;&lt;/div&gt;" style="text;html=1;strokeColor=none;fillColor=none;align=center;verticalAlign=middle;whiteSpace=wrap;rounded=0;movable=0;resizable=0;rotatable=0;deletable=0;editable=0;connectable=0;container=0;" parent="2j8hGIhh0hBBkrBzc8hK-160" vertex="1">
          <mxGeometry width="80" height="20" as="geometry" />
        </mxCell>
        <mxCell id="2j8hGIhh0hBBkrBzc8hK-163" value="&lt;span style=&quot;color: rgb(0, 0, 0); font-family: Helvetica; font-size: 15px; font-style: normal; font-variant-ligatures: normal; font-variant-caps: normal; letter-spacing: normal; orphans: 2; text-align: center; text-indent: 0px; text-transform: none; widows: 2; word-spacing: 0px; -webkit-text-stroke-width: 0px; background-color: initial; text-decoration-thickness: initial; text-decoration-style: initial; text-decoration-color: initial;&quot;&gt;version &lt;b&gt;2&lt;/b&gt;&lt;/span&gt;" style="text;html=1;strokeColor=none;fillColor=none;align=center;verticalAlign=middle;whiteSpace=wrap;rounded=0;fontSize=15;movable=1;resizable=1;rotatable=1;deletable=1;editable=1;connectable=1;container=0;locked=0;" parent="2j8hGIhh0hBBkrBzc8hK-160" vertex="1">
          <mxGeometry y="100" width="80" height="20" as="geometry" />
        </mxCell>
        <mxCell id="2j8hGIhh0hBBkrBzc8hK-164" value="" style="aspect=fixed;perimeter=ellipsePerimeter;html=1;align=center;shadow=0;dashed=0;fontColor=#4277BB;labelBackgroundColor=#ffffff;fontSize=12;spacingTop=3;image;image=img/lib/ibm/applications/index.svg;imageBackground=none;movable=0;resizable=0;rotatable=0;deletable=0;editable=0;connectable=0;container=0;" parent="2j8hGIhh0hBBkrBzc8hK-160" vertex="1">
          <mxGeometry y="20" width="80" height="80" as="geometry" />
        </mxCell>
        <mxCell id="2j8hGIhh0hBBkrBzc8hK-165" value="" style="group" parent="1" vertex="1" connectable="0">
          <mxGeometry x="4059" y="20" width="120" height="140" as="geometry" />
        </mxCell>
        <mxCell id="2j8hGIhh0hBBkrBzc8hK-166" value="" style="sketch=0;pointerEvents=1;shadow=0;dashed=0;html=1;strokeColor=none;fillColor=#E6E6E6;labelPosition=center;verticalLabelPosition=bottom;verticalAlign=top;align=center;outlineConnect=0;shape=mxgraph.veeam2.server;rounded=0;fontFamily=Helvetica;fontSize=13;fontColor=default;movable=1;resizable=1;rotatable=1;deletable=1;editable=1;connectable=1;" parent="2j8hGIhh0hBBkrBzc8hK-165" vertex="1">
          <mxGeometry width="120" height="140" as="geometry" />
        </mxCell>
        <mxCell id="2j8hGIhh0hBBkrBzc8hK-167" value="" style="group;movable=1;resizable=1;rotatable=1;deletable=1;editable=1;connectable=1;" parent="2j8hGIhh0hBBkrBzc8hK-165" vertex="1" connectable="0">
          <mxGeometry x="20" y="11" width="80" height="120" as="geometry" />
        </mxCell>
        <mxCell id="2j8hGIhh0hBBkrBzc8hK-168" value="" style="rounded=1;whiteSpace=wrap;html=1;fontSize=15;fillColor=#D5E8D4;movable=0;resizable=0;rotatable=0;deletable=0;editable=0;connectable=0;container=0;strokeColor=#006600;" parent="2j8hGIhh0hBBkrBzc8hK-167" vertex="1">
          <mxGeometry width="80" height="120" as="geometry" />
        </mxCell>
        <mxCell id="2j8hGIhh0hBBkrBzc8hK-169" value="&lt;div style=&quot;&quot;&gt;&lt;span style=&quot;font-size: 15px; background-color: initial;&quot;&gt;partition &lt;b&gt;B&lt;/b&gt;&lt;/span&gt;&lt;/div&gt;" style="text;html=1;strokeColor=none;fillColor=none;align=center;verticalAlign=middle;whiteSpace=wrap;rounded=0;movable=0;resizable=0;rotatable=0;deletable=0;editable=0;connectable=0;container=0;" parent="2j8hGIhh0hBBkrBzc8hK-167" vertex="1">
          <mxGeometry width="80" height="20" as="geometry" />
        </mxCell>
        <mxCell id="2j8hGIhh0hBBkrBzc8hK-170" value="&lt;span style=&quot;color: rgb(0, 0, 0); font-family: Helvetica; font-size: 15px; font-style: normal; font-variant-ligatures: normal; font-variant-caps: normal; letter-spacing: normal; orphans: 2; text-align: center; text-indent: 0px; text-transform: none; widows: 2; word-spacing: 0px; -webkit-text-stroke-width: 0px; background-color: initial; text-decoration-thickness: initial; text-decoration-style: initial; text-decoration-color: initial;&quot;&gt;version &lt;b&gt;2&lt;/b&gt;&lt;/span&gt;" style="text;html=1;strokeColor=none;fillColor=none;align=center;verticalAlign=middle;whiteSpace=wrap;rounded=0;fontSize=15;movable=1;resizable=1;rotatable=1;deletable=1;editable=1;connectable=1;container=0;locked=0;" parent="2j8hGIhh0hBBkrBzc8hK-167" vertex="1">
          <mxGeometry y="100" width="80" height="20" as="geometry" />
        </mxCell>
        <mxCell id="2j8hGIhh0hBBkrBzc8hK-171" value="" style="aspect=fixed;perimeter=ellipsePerimeter;html=1;align=center;shadow=0;dashed=0;fontColor=#4277BB;labelBackgroundColor=#ffffff;fontSize=12;spacingTop=3;image;image=img/lib/ibm/applications/index.svg;imageBackground=none;movable=0;resizable=0;rotatable=0;deletable=0;editable=0;connectable=0;container=0;" parent="2j8hGIhh0hBBkrBzc8hK-167" vertex="1">
          <mxGeometry y="20" width="80" height="80" as="geometry" />
        </mxCell>
        <mxCell id="2j8hGIhh0hBBkrBzc8hK-172" style="edgeStyle=orthogonalEdgeStyle;rounded=0;orthogonalLoop=1;jettySize=auto;html=1;strokeWidth=3;fontFamily=Helvetica;fontSize=16;fontColor=default;fillColor=#d5e8d4;strokeColor=#82b366;" parent="1" target="2j8hGIhh0hBBkrBzc8hK-166" edge="1">
          <mxGeometry relative="1" as="geometry">
            <mxPoint x="4119" y="200" as="sourcePoint" />
          </mxGeometry>
        </mxCell>
        <mxCell id="2j8hGIhh0hBBkrBzc8hK-173" style="edgeStyle=orthogonalEdgeStyle;rounded=0;orthogonalLoop=1;jettySize=auto;html=1;strokeWidth=3;fontFamily=Helvetica;fontSize=16;fontColor=default;fillColor=#d5e8d4;strokeColor=#82b366;" parent="1" target="2j8hGIhh0hBBkrBzc8hK-159" edge="1">
          <mxGeometry relative="1" as="geometry">
            <mxPoint x="4159" y="260" as="sourcePoint" />
          </mxGeometry>
        </mxCell>
        <mxCell id="2j8hGIhh0hBBkrBzc8hK-174" value="" style="group" parent="1" vertex="1" connectable="0">
          <mxGeometry x="4079" y="200" width="80" height="120" as="geometry" />
        </mxCell>
        <mxCell id="2j8hGIhh0hBBkrBzc8hK-175" value="" style="rounded=1;whiteSpace=wrap;html=1;shadow=0;fontSize=15;movable=1;resizable=1;rotatable=1;deletable=1;editable=1;connectable=1;fillColor=#d5e8d4;strokeColor=#82b366;" parent="2j8hGIhh0hBBkrBzc8hK-174" vertex="1">
          <mxGeometry width="80" height="120" as="geometry" />
        </mxCell>
        <mxCell id="2j8hGIhh0hBBkrBzc8hK-176" value="" style="outlineConnect=0;dashed=0;verticalLabelPosition=bottom;verticalAlign=top;align=center;html=1;shape=mxgraph.aws3.application_load_balancer;fillColor=#F58534;gradientColor=none;fontSize=18;strokeColor=default;shadow=0;movable=1;resizable=1;rotatable=1;deletable=1;editable=1;connectable=1;" parent="2j8hGIhh0hBBkrBzc8hK-174" vertex="1">
          <mxGeometry y="40" width="80" height="80" as="geometry" />
        </mxCell>
        <mxCell id="2j8hGIhh0hBBkrBzc8hK-177" value="&lt;font style=&quot;font-size: 13px;&quot;&gt;PARTICIAN&amp;nbsp;&lt;br&gt;GATEWAY&lt;/font&gt;" style="text;html=1;strokeColor=none;fillColor=none;align=center;verticalAlign=middle;whiteSpace=wrap;rounded=0;shadow=0;fontSize=18;movable=1;resizable=1;rotatable=1;deletable=1;editable=1;connectable=1;" parent="2j8hGIhh0hBBkrBzc8hK-174" vertex="1">
          <mxGeometry width="80" height="40" as="geometry" />
        </mxCell>
        <mxCell id="2j8hGIhh0hBBkrBzc8hK-178" style="edgeStyle=orthogonalEdgeStyle;rounded=0;orthogonalLoop=1;jettySize=auto;html=1;strokeWidth=3;fontFamily=Helvetica;fontSize=16;fontColor=default;fillColor=#d5e8d4;strokeColor=#82b366;exitX=0.5;exitY=0;exitDx=0;exitDy=0;" parent="1" source="2j8hGIhh0hBBkrBzc8hK-93" target="2j8hGIhh0hBBkrBzc8hK-176" edge="1">
          <mxGeometry relative="1" as="geometry">
            <mxPoint x="3822" y="390" as="sourcePoint" />
            <mxPoint x="3520" y="300" as="targetPoint" />
          </mxGeometry>
        </mxCell>
        <mxCell id="2j8hGIhh0hBBkrBzc8hK-307" value="OLD version" style="swimlane;whiteSpace=wrap;html=1;" parent="1" vertex="1">
          <mxGeometry x="3240" y="-30" width="560" height="380" as="geometry" />
        </mxCell>
        <mxCell id="2j8hGIhh0hBBkrBzc8hK-308" value="NEW version" style="swimlane;whiteSpace=wrap;html=1;startSize=23;" parent="1" vertex="1">
          <mxGeometry x="3840" y="-30" width="560" height="380" as="geometry" />
        </mxCell>
        <mxCell id="UJpK7ksH3YRqFfvnF_kW-133" value="" style="sketch=0;outlineConnect=0;fontColor=#232F3E;gradientColor=none;fillColor=#3F8624;strokeColor=none;dashed=0;verticalLabelPosition=bottom;verticalAlign=top;align=center;html=1;fontSize=12;fontStyle=0;aspect=fixed;pointerEvents=1;shape=mxgraph.aws4.iot_analytics_pipeline;rounded=0;shadow=0;fontFamily=Helvetica;" parent="1" vertex="1">
          <mxGeometry x="3608" y="-2183.69" width="162.29" height="87.38" as="geometry" />
        </mxCell>
        <mxCell id="UJpK7ksH3YRqFfvnF_kW-134" value="" style="sketch=0;outlineConnect=0;fontColor=#232F3E;gradientColor=none;fillColor=#3F8624;strokeColor=none;dashed=0;verticalLabelPosition=bottom;verticalAlign=top;align=center;html=1;fontSize=12;fontStyle=0;aspect=fixed;pointerEvents=1;shape=mxgraph.aws4.iot_analytics_pipeline;rounded=0;shadow=0;fontFamily=Helvetica;" parent="1" vertex="1">
          <mxGeometry x="3968" y="-2183.69" width="160" height="86.15" as="geometry" />
        </mxCell>
        <mxCell id="UJpK7ksH3YRqFfvnF_kW-167" style="edgeStyle=orthogonalEdgeStyle;rounded=0;orthogonalLoop=1;jettySize=auto;html=1;exitX=0.5;exitY=1;exitDx=0;exitDy=0;" parent="1" source="UJpK7ksH3YRqFfvnF_kW-135" target="UJpK7ksH3YRqFfvnF_kW-165" edge="1">
          <mxGeometry relative="1" as="geometry" />
        </mxCell>
        <mxCell id="UJpK7ksH3YRqFfvnF_kW-170" style="edgeStyle=orthogonalEdgeStyle;rounded=0;orthogonalLoop=1;jettySize=auto;html=1;entryX=0.321;entryY=-0.021;entryDx=0;entryDy=0;entryPerimeter=0;" parent="1" source="UJpK7ksH3YRqFfvnF_kW-135" target="UJpK7ksH3YRqFfvnF_kW-168" edge="1">
          <mxGeometry relative="1" as="geometry">
            <Array as="points">
              <mxPoint x="3868" y="-2040" />
              <mxPoint x="3991" y="-2040" />
            </Array>
          </mxGeometry>
        </mxCell>
        <mxCell id="UJpK7ksH3YRqFfvnF_kW-135" value="&lt;p style=&quot;font-size: 20px;&quot;&gt;Пайплайн кластеризации на K кластеров&lt;/p&gt;" style="rounded=1;whiteSpace=wrap;html=1;shadow=0;strokeColor=#000000;fontFamily=Helvetica;fontSize=40;fontColor=#000000;fillColor=none;strokeWidth=4;" parent="1" vertex="1">
          <mxGeometry x="3768" y="-2181.69" width="200" height="80" as="geometry" />
        </mxCell>
        <mxCell id="UJpK7ksH3YRqFfvnF_kW-180" style="edgeStyle=orthogonalEdgeStyle;rounded=0;orthogonalLoop=1;jettySize=auto;html=1;" parent="1" source="UJpK7ksH3YRqFfvnF_kW-141" target="UJpK7ksH3YRqFfvnF_kW-171" edge="1">
          <mxGeometry relative="1" as="geometry">
            <Array as="points">
              <mxPoint x="4307" y="-1760" />
              <mxPoint x="4004" y="-1760" />
            </Array>
          </mxGeometry>
        </mxCell>
        <mxCell id="UJpK7ksH3YRqFfvnF_kW-141" value="&lt;p style=&quot;font-size: 20px;&quot;&gt;Расчет индексов для каждого кластера и сохранение этих индексов в хранилище&lt;/p&gt;" style="rounded=1;whiteSpace=wrap;html=1;shadow=0;strokeColor=#000000;fontFamily=Helvetica;fontSize=40;fontColor=#000000;fillColor=none;strokeWidth=4;" parent="1" vertex="1">
          <mxGeometry x="4128" y="-2183.69" width="359" height="80" as="geometry" />
        </mxCell>
        <mxCell id="UJpK7ksH3YRqFfvnF_kW-179" style="edgeStyle=orthogonalEdgeStyle;rounded=0;orthogonalLoop=1;jettySize=auto;html=1;entryX=0.497;entryY=-0.05;entryDx=0;entryDy=0;entryPerimeter=0;" parent="1" source="UJpK7ksH3YRqFfvnF_kW-165" target="UJpK7ksH3YRqFfvnF_kW-171" edge="1">
          <mxGeometry relative="1" as="geometry">
            <Array as="points">
              <mxPoint x="3718" y="-1760" />
              <mxPoint x="4003" y="-1760" />
            </Array>
          </mxGeometry>
        </mxCell>
        <mxCell id="UJpK7ksH3YRqFfvnF_kW-165" value="Информация по кластеризации: &lt;br style=&quot;font-size: 13px;&quot;&gt;&quot;номер кластера&quot;: [вопросы из этого кластера]" style="dashed=0;outlineConnect=0;html=1;align=center;labelPosition=center;verticalLabelPosition=bottom;verticalAlign=top;shape=mxgraph.weblogos.json;fontSize=13;" parent="1" vertex="1">
          <mxGeometry x="3681" y="-1980" width="70" height="75.8" as="geometry" />
        </mxCell>
        <mxCell id="UJpK7ksH3YRqFfvnF_kW-172" style="edgeStyle=orthogonalEdgeStyle;rounded=0;orthogonalLoop=1;jettySize=auto;html=1;" parent="1" source="UJpK7ksH3YRqFfvnF_kW-168" target="UJpK7ksH3YRqFfvnF_kW-171" edge="1">
          <mxGeometry relative="1" as="geometry" />
        </mxCell>
        <mxCell id="UJpK7ksH3YRqFfvnF_kW-168" value="Информация о центроидах кластеров" style="html=1;verticalLabelPosition=bottom;align=center;labelBackgroundColor=#ffffff;verticalAlign=top;strokeWidth=2;strokeColor=#0080F0;shadow=0;dashed=0;shape=mxgraph.ios7.icons.document;fontSize=13;" parent="1" vertex="1">
          <mxGeometry x="3968" y="-1987.1000000000001" width="71" height="90" as="geometry" />
        </mxCell>
        <mxCell id="e7Cpro7utsQeBuYdya2P-23" style="edgeStyle=orthogonalEdgeStyle;rounded=0;orthogonalLoop=1;jettySize=auto;html=1;entryX=0;entryY=0.5;entryDx=0;entryDy=0;startArrow=classic;startFill=1;" edge="1" parent="1" source="UJpK7ksH3YRqFfvnF_kW-171" target="e7Cpro7utsQeBuYdya2P-22">
          <mxGeometry relative="1" as="geometry" />
        </mxCell>
        <mxCell id="UJpK7ksH3YRqFfvnF_kW-171" value="&lt;b&gt;&lt;font style=&quot;font-size: 18px;&quot;&gt;S3&lt;/font&gt;&lt;/b&gt;&lt;br&gt;Ver 1&lt;br&gt;Ver 2&lt;br&gt;..." style="shape=datastore;whiteSpace=wrap;html=1;" parent="1" vertex="1">
          <mxGeometry x="3906.25" y="-1710" width="194.5" height="130" as="geometry" />
        </mxCell>
        <mxCell id="UJpK7ksH3YRqFfvnF_kW-184" style="rounded=0;orthogonalLoop=1;jettySize=auto;html=1;startArrow=classic;startFill=1;" parent="1" source="UJpK7ksH3YRqFfvnF_kW-183" target="UJpK7ksH3YRqFfvnF_kW-171" edge="1">
          <mxGeometry relative="1" as="geometry" />
        </mxCell>
        <mxCell id="UJpK7ksH3YRqFfvnF_kW-198" value="" style="edgeStyle=orthogonalEdgeStyle;rounded=0;orthogonalLoop=1;jettySize=auto;html=1;startArrow=classic;startFill=1;" parent="1" source="UJpK7ksH3YRqFfvnF_kW-183" target="UJpK7ksH3YRqFfvnF_kW-197" edge="1">
          <mxGeometry x="-0.1667" y="15" relative="1" as="geometry">
            <Array as="points">
              <mxPoint x="4003" y="-1310" />
              <mxPoint x="4003" y="-1310" />
            </Array>
            <mxPoint y="1" as="offset" />
          </mxGeometry>
        </mxCell>
        <mxCell id="UJpK7ksH3YRqFfvnF_kW-210" style="edgeStyle=orthogonalEdgeStyle;rounded=0;orthogonalLoop=1;jettySize=auto;html=1;entryX=0.5;entryY=0;entryDx=0;entryDy=0;" parent="1" source="UJpK7ksH3YRqFfvnF_kW-185" target="UJpK7ksH3YRqFfvnF_kW-206" edge="1">
          <mxGeometry relative="1" as="geometry">
            <Array as="points">
              <mxPoint x="3767" y="-970" />
              <mxPoint x="4004" y="-970" />
            </Array>
          </mxGeometry>
        </mxCell>
        <mxCell id="UJpK7ksH3YRqFfvnF_kW-185" value="" style="sketch=0;pointerEvents=1;shadow=0;dashed=0;html=1;strokeColor=#23445d;fillColor=#E6E6E6;labelPosition=center;verticalLabelPosition=bottom;verticalAlign=top;align=center;outlineConnect=0;shape=mxgraph.veeam2.server;rounded=0;fontFamily=Helvetica;fontSize=13;movable=1;resizable=1;rotatable=1;deletable=1;editable=1;connectable=1;" parent="1" vertex="1">
          <mxGeometry x="3698" y="-1130" width="120" height="140" as="geometry" />
        </mxCell>
        <mxCell id="UJpK7ksH3YRqFfvnF_kW-207" value="" style="edgeStyle=orthogonalEdgeStyle;rounded=0;orthogonalLoop=1;jettySize=auto;html=1;" parent="1" source="UJpK7ksH3YRqFfvnF_kW-188" target="UJpK7ksH3YRqFfvnF_kW-206" edge="1">
          <mxGeometry relative="1" as="geometry" />
        </mxCell>
        <mxCell id="UJpK7ksH3YRqFfvnF_kW-188" value="" style="sketch=0;pointerEvents=1;shadow=0;dashed=0;html=1;strokeColor=#23445d;fillColor=#E6E6E6;labelPosition=center;verticalLabelPosition=bottom;verticalAlign=top;align=center;outlineConnect=0;shape=mxgraph.veeam2.server;rounded=0;fontFamily=Helvetica;fontSize=13;movable=1;resizable=1;rotatable=1;deletable=1;editable=1;connectable=1;" parent="1" vertex="1">
          <mxGeometry x="3943.5" y="-1130" width="120" height="140" as="geometry" />
        </mxCell>
        <mxCell id="UJpK7ksH3YRqFfvnF_kW-208" style="edgeStyle=orthogonalEdgeStyle;rounded=0;orthogonalLoop=1;jettySize=auto;html=1;" parent="1" source="UJpK7ksH3YRqFfvnF_kW-189" target="UJpK7ksH3YRqFfvnF_kW-206" edge="1">
          <mxGeometry relative="1" as="geometry">
            <Array as="points">
              <mxPoint x="4249" y="-970" />
              <mxPoint x="4004" y="-970" />
            </Array>
          </mxGeometry>
        </mxCell>
        <mxCell id="UJpK7ksH3YRqFfvnF_kW-189" value="" style="sketch=0;pointerEvents=1;shadow=0;dashed=0;html=1;strokeColor=#23445d;fillColor=#E6E6E6;labelPosition=center;verticalLabelPosition=bottom;verticalAlign=top;align=center;outlineConnect=0;shape=mxgraph.veeam2.server;rounded=0;fontFamily=Helvetica;fontSize=13;movable=1;resizable=1;rotatable=1;deletable=1;editable=1;connectable=1;" parent="1" vertex="1">
          <mxGeometry x="4189.29" y="-1130" width="120" height="140" as="geometry" />
        </mxCell>
        <mxCell id="UJpK7ksH3YRqFfvnF_kW-201" style="edgeStyle=orthogonalEdgeStyle;rounded=0;orthogonalLoop=1;jettySize=auto;html=1;" parent="1" source="UJpK7ksH3YRqFfvnF_kW-197" target="UJpK7ksH3YRqFfvnF_kW-185" edge="1">
          <mxGeometry relative="1" as="geometry" />
        </mxCell>
        <mxCell id="UJpK7ksH3YRqFfvnF_kW-202" style="edgeStyle=orthogonalEdgeStyle;rounded=0;orthogonalLoop=1;jettySize=auto;html=1;" parent="1" source="UJpK7ksH3YRqFfvnF_kW-197" target="UJpK7ksH3YRqFfvnF_kW-189" edge="1">
          <mxGeometry relative="1" as="geometry" />
        </mxCell>
        <mxCell id="UJpK7ksH3YRqFfvnF_kW-345" style="edgeStyle=orthogonalEdgeStyle;rounded=0;orthogonalLoop=1;jettySize=auto;html=1;" parent="1" source="UJpK7ksH3YRqFfvnF_kW-197" target="UJpK7ksH3YRqFfvnF_kW-188" edge="1">
          <mxGeometry relative="1" as="geometry" />
        </mxCell>
        <mxCell id="UJpK7ksH3YRqFfvnF_kW-197" value="Parallel upload index" style="rhombus;whiteSpace=wrap;html=1;rounded=1;arcSize=14;strokeWidth=2;fontSize=17;" parent="1" vertex="1">
          <mxGeometry x="3858" y="-1268" width="290" height="80" as="geometry" />
        </mxCell>
        <mxCell id="UJpK7ksH3YRqFfvnF_kW-211" style="edgeStyle=orthogonalEdgeStyle;rounded=0;orthogonalLoop=1;jettySize=auto;html=1;entryX=0.5;entryY=0;entryDx=0;entryDy=0;exitX=1;exitY=0.5;exitDx=0;exitDy=0;" parent="1" source="UJpK7ksH3YRqFfvnF_kW-206" target="UJpK7ksH3YRqFfvnF_kW-197" edge="1">
          <mxGeometry relative="1" as="geometry">
            <Array as="points">
              <mxPoint x="4348" y="-900" />
              <mxPoint x="4348" y="-1310" />
              <mxPoint x="4003" y="-1310" />
            </Array>
          </mxGeometry>
        </mxCell>
        <mxCell id="UJpK7ksH3YRqFfvnF_kW-212" value="Нет" style="edgeLabel;html=1;align=center;verticalAlign=middle;resizable=0;points=[];" parent="UJpK7ksH3YRqFfvnF_kW-211" vertex="1" connectable="0">
          <mxGeometry x="-0.7654" y="-5" relative="1" as="geometry">
            <mxPoint x="-1" as="offset" />
          </mxGeometry>
        </mxCell>
        <mxCell id="UJpK7ksH3YRqFfvnF_kW-280" value="" style="group" parent="1" vertex="1" connectable="0">
          <mxGeometry x="3257" y="-610" width="120" height="140" as="geometry" />
        </mxCell>
        <mxCell id="UJpK7ksH3YRqFfvnF_kW-281" value="" style="sketch=0;pointerEvents=1;shadow=0;dashed=0;html=1;strokeColor=none;fillColor=#E6E6E6;labelPosition=center;verticalLabelPosition=bottom;verticalAlign=top;align=center;outlineConnect=0;shape=mxgraph.veeam2.server;rounded=0;fontFamily=Helvetica;fontSize=13;fontColor=default;movable=1;resizable=1;rotatable=1;deletable=1;editable=1;connectable=1;" parent="UJpK7ksH3YRqFfvnF_kW-280" vertex="1">
          <mxGeometry width="120" height="140" as="geometry" />
        </mxCell>
        <mxCell id="UJpK7ksH3YRqFfvnF_kW-282" value="" style="group;movable=1;resizable=1;rotatable=1;deletable=1;editable=1;connectable=1;" parent="UJpK7ksH3YRqFfvnF_kW-280" vertex="1" connectable="0">
          <mxGeometry x="20" y="10" width="80" height="120" as="geometry" />
        </mxCell>
        <mxCell id="UJpK7ksH3YRqFfvnF_kW-283" value="" style="rounded=1;whiteSpace=wrap;html=1;fontSize=15;fillColor=#D5E8D4;movable=1;resizable=1;rotatable=1;deletable=1;editable=1;connectable=1;container=0;strokeColor=#006600;" parent="UJpK7ksH3YRqFfvnF_kW-282" vertex="1">
          <mxGeometry width="80" height="120" as="geometry" />
        </mxCell>
        <mxCell id="UJpK7ksH3YRqFfvnF_kW-284" value="&lt;div style=&quot;&quot;&gt;&lt;span style=&quot;font-size: 15px; background-color: initial;&quot;&gt;partition &lt;b&gt;A&lt;/b&gt;&lt;/span&gt;&lt;/div&gt;" style="text;html=1;strokeColor=none;fillColor=none;align=center;verticalAlign=middle;whiteSpace=wrap;rounded=0;movable=1;resizable=1;rotatable=1;deletable=1;editable=1;connectable=1;container=0;" parent="UJpK7ksH3YRqFfvnF_kW-282" vertex="1">
          <mxGeometry width="80" height="20" as="geometry" />
        </mxCell>
        <mxCell id="UJpK7ksH3YRqFfvnF_kW-285" value="&lt;span style=&quot;color: rgb(0, 0, 0); font-family: Helvetica; font-size: 15px; font-style: normal; font-variant-ligatures: normal; font-variant-caps: normal; letter-spacing: normal; orphans: 2; text-align: center; text-indent: 0px; text-transform: none; widows: 2; word-spacing: 0px; -webkit-text-stroke-width: 0px; background-color: initial; text-decoration-thickness: initial; text-decoration-style: initial; text-decoration-color: initial;&quot;&gt;version &lt;b&gt;1&lt;/b&gt;&lt;/span&gt;" style="text;html=1;strokeColor=none;fillColor=none;align=center;verticalAlign=middle;whiteSpace=wrap;rounded=0;fontSize=15;movable=1;resizable=1;rotatable=1;deletable=1;editable=1;connectable=1;container=0;" parent="UJpK7ksH3YRqFfvnF_kW-282" vertex="1">
          <mxGeometry y="100" width="80" height="20" as="geometry" />
        </mxCell>
        <mxCell id="UJpK7ksH3YRqFfvnF_kW-286" value="" style="aspect=fixed;perimeter=ellipsePerimeter;html=1;align=center;shadow=0;dashed=0;fontColor=#4277BB;labelBackgroundColor=#ffffff;fontSize=12;spacingTop=3;image;image=img/lib/ibm/applications/index.svg;imageBackground=none;movable=1;resizable=1;rotatable=1;deletable=1;editable=1;connectable=1;container=0;" parent="UJpK7ksH3YRqFfvnF_kW-282" vertex="1">
          <mxGeometry y="20" width="80" height="80" as="geometry" />
        </mxCell>
        <mxCell id="UJpK7ksH3YRqFfvnF_kW-287" style="edgeStyle=orthogonalEdgeStyle;rounded=0;orthogonalLoop=1;jettySize=auto;html=1;fontFamily=Helvetica;fontSize=16;fontColor=default;strokeWidth=3;fillColor=#d5e8d4;strokeColor=#82b366;" parent="1" target="UJpK7ksH3YRqFfvnF_kW-281" edge="1">
          <mxGeometry relative="1" as="geometry">
            <mxPoint x="3476" y="-370" as="sourcePoint" />
          </mxGeometry>
        </mxCell>
        <mxCell id="UJpK7ksH3YRqFfvnF_kW-288" value="" style="group" parent="1" vertex="1" connectable="0">
          <mxGeometry x="3656" y="-610" width="120" height="140" as="geometry" />
        </mxCell>
        <mxCell id="UJpK7ksH3YRqFfvnF_kW-289" value="" style="sketch=0;pointerEvents=1;shadow=0;dashed=0;html=1;strokeColor=none;fillColor=#E6E6E6;labelPosition=center;verticalLabelPosition=bottom;verticalAlign=top;align=center;outlineConnect=0;shape=mxgraph.veeam2.server;rounded=0;fontFamily=Helvetica;fontSize=13;fontColor=default;movable=1;resizable=1;rotatable=1;deletable=1;editable=1;connectable=1;" parent="UJpK7ksH3YRqFfvnF_kW-288" vertex="1">
          <mxGeometry width="120" height="140" as="geometry" />
        </mxCell>
        <mxCell id="UJpK7ksH3YRqFfvnF_kW-290" value="" style="group;movable=1;resizable=1;rotatable=1;deletable=1;editable=1;connectable=1;" parent="UJpK7ksH3YRqFfvnF_kW-288" vertex="1" connectable="0">
          <mxGeometry x="20" y="10" width="80" height="120" as="geometry" />
        </mxCell>
        <mxCell id="UJpK7ksH3YRqFfvnF_kW-291" value="" style="rounded=1;whiteSpace=wrap;html=1;fontSize=15;fillColor=#D5E8D4;movable=0;resizable=0;rotatable=0;deletable=0;editable=0;connectable=0;container=0;strokeColor=#006600;" parent="UJpK7ksH3YRqFfvnF_kW-290" vertex="1">
          <mxGeometry width="80" height="120" as="geometry" />
        </mxCell>
        <mxCell id="UJpK7ksH3YRqFfvnF_kW-292" value="&lt;div style=&quot;&quot;&gt;&lt;span style=&quot;font-size: 15px; background-color: initial;&quot;&gt;partition &lt;b&gt;C&lt;/b&gt;&lt;/span&gt;&lt;/div&gt;" style="text;html=1;strokeColor=none;fillColor=none;align=center;verticalAlign=middle;whiteSpace=wrap;rounded=0;movable=0;resizable=0;rotatable=0;deletable=0;editable=0;connectable=0;container=0;" parent="UJpK7ksH3YRqFfvnF_kW-290" vertex="1">
          <mxGeometry width="80" height="20" as="geometry" />
        </mxCell>
        <mxCell id="UJpK7ksH3YRqFfvnF_kW-293" value="&lt;span style=&quot;color: rgb(0, 0, 0); font-family: Helvetica; font-size: 15px; font-style: normal; font-variant-ligatures: normal; font-variant-caps: normal; letter-spacing: normal; orphans: 2; text-align: center; text-indent: 0px; text-transform: none; widows: 2; word-spacing: 0px; -webkit-text-stroke-width: 0px; background-color: initial; text-decoration-thickness: initial; text-decoration-style: initial; text-decoration-color: initial;&quot;&gt;version &lt;b&gt;1&lt;/b&gt;&lt;/span&gt;" style="text;html=1;strokeColor=none;fillColor=none;align=center;verticalAlign=middle;whiteSpace=wrap;rounded=0;fontSize=15;movable=0;resizable=0;rotatable=0;deletable=0;editable=0;connectable=0;container=0;" parent="UJpK7ksH3YRqFfvnF_kW-290" vertex="1">
          <mxGeometry y="100" width="80" height="20" as="geometry" />
        </mxCell>
        <mxCell id="UJpK7ksH3YRqFfvnF_kW-294" value="" style="aspect=fixed;perimeter=ellipsePerimeter;html=1;align=center;shadow=0;dashed=0;fontColor=#4277BB;labelBackgroundColor=#ffffff;fontSize=12;spacingTop=3;image;image=img/lib/ibm/applications/index.svg;imageBackground=none;movable=0;resizable=0;rotatable=0;deletable=0;editable=0;connectable=0;container=0;" parent="UJpK7ksH3YRqFfvnF_kW-290" vertex="1">
          <mxGeometry y="20" width="80" height="80" as="geometry" />
        </mxCell>
        <mxCell id="UJpK7ksH3YRqFfvnF_kW-295" value="" style="group" parent="1" vertex="1" connectable="0">
          <mxGeometry x="3456" y="-610" width="120" height="140" as="geometry" />
        </mxCell>
        <mxCell id="UJpK7ksH3YRqFfvnF_kW-296" value="" style="sketch=0;pointerEvents=1;shadow=0;dashed=0;html=1;strokeColor=none;fillColor=#E6E6E6;labelPosition=center;verticalLabelPosition=bottom;verticalAlign=top;align=center;outlineConnect=0;shape=mxgraph.veeam2.server;rounded=0;fontFamily=Helvetica;fontSize=13;fontColor=default;movable=1;resizable=1;rotatable=1;deletable=1;editable=1;connectable=1;" parent="UJpK7ksH3YRqFfvnF_kW-295" vertex="1">
          <mxGeometry width="120" height="140" as="geometry" />
        </mxCell>
        <mxCell id="UJpK7ksH3YRqFfvnF_kW-297" value="" style="group;movable=1;resizable=1;rotatable=1;deletable=1;editable=1;connectable=1;" parent="UJpK7ksH3YRqFfvnF_kW-295" vertex="1" connectable="0">
          <mxGeometry x="20" y="10" width="80" height="120" as="geometry" />
        </mxCell>
        <mxCell id="UJpK7ksH3YRqFfvnF_kW-298" value="" style="rounded=1;whiteSpace=wrap;html=1;fontSize=15;fillColor=#D5E8D4;movable=0;resizable=0;rotatable=0;deletable=0;editable=0;connectable=0;container=0;strokeColor=#006600;" parent="UJpK7ksH3YRqFfvnF_kW-297" vertex="1">
          <mxGeometry width="80" height="120" as="geometry" />
        </mxCell>
        <mxCell id="UJpK7ksH3YRqFfvnF_kW-299" value="&lt;div style=&quot;&quot;&gt;&lt;span style=&quot;font-size: 15px; background-color: initial;&quot;&gt;partition &lt;b&gt;B&lt;/b&gt;&lt;/span&gt;&lt;/div&gt;" style="text;html=1;strokeColor=none;fillColor=none;align=center;verticalAlign=middle;whiteSpace=wrap;rounded=0;movable=0;resizable=0;rotatable=0;deletable=0;editable=0;connectable=0;container=0;" parent="UJpK7ksH3YRqFfvnF_kW-297" vertex="1">
          <mxGeometry width="80" height="20" as="geometry" />
        </mxCell>
        <mxCell id="UJpK7ksH3YRqFfvnF_kW-300" value="&lt;span style=&quot;color: rgb(0, 0, 0); font-family: Helvetica; font-size: 15px; font-style: normal; font-variant-ligatures: normal; font-variant-caps: normal; letter-spacing: normal; orphans: 2; text-align: center; text-indent: 0px; text-transform: none; widows: 2; word-spacing: 0px; -webkit-text-stroke-width: 0px; background-color: initial; text-decoration-thickness: initial; text-decoration-style: initial; text-decoration-color: initial;&quot;&gt;version &lt;b&gt;1&lt;/b&gt;&lt;/span&gt;" style="text;html=1;strokeColor=none;fillColor=none;align=center;verticalAlign=middle;whiteSpace=wrap;rounded=0;fontSize=15;movable=0;resizable=0;rotatable=0;deletable=0;editable=0;connectable=0;container=0;" parent="UJpK7ksH3YRqFfvnF_kW-297" vertex="1">
          <mxGeometry y="100" width="80" height="20" as="geometry" />
        </mxCell>
        <mxCell id="UJpK7ksH3YRqFfvnF_kW-301" value="" style="aspect=fixed;perimeter=ellipsePerimeter;html=1;align=center;shadow=0;dashed=0;fontColor=#4277BB;labelBackgroundColor=#ffffff;fontSize=12;spacingTop=3;image;image=img/lib/ibm/applications/index.svg;imageBackground=none;movable=0;resizable=0;rotatable=0;deletable=0;editable=0;connectable=0;container=0;" parent="UJpK7ksH3YRqFfvnF_kW-297" vertex="1">
          <mxGeometry y="20" width="80" height="80" as="geometry" />
        </mxCell>
        <mxCell id="UJpK7ksH3YRqFfvnF_kW-302" style="edgeStyle=orthogonalEdgeStyle;rounded=0;orthogonalLoop=1;jettySize=auto;html=1;strokeWidth=3;fontFamily=Helvetica;fontSize=16;fontColor=default;fillColor=#d5e8d4;strokeColor=#82b366;" parent="1" target="UJpK7ksH3YRqFfvnF_kW-296" edge="1">
          <mxGeometry relative="1" as="geometry">
            <mxPoint x="3516" y="-430" as="sourcePoint" />
          </mxGeometry>
        </mxCell>
        <mxCell id="UJpK7ksH3YRqFfvnF_kW-303" style="edgeStyle=orthogonalEdgeStyle;rounded=0;orthogonalLoop=1;jettySize=auto;html=1;strokeWidth=3;fontFamily=Helvetica;fontSize=16;fontColor=default;fillColor=#d5e8d4;strokeColor=#82b366;" parent="1" target="UJpK7ksH3YRqFfvnF_kW-289" edge="1">
          <mxGeometry relative="1" as="geometry">
            <mxPoint x="3556" y="-370" as="sourcePoint" />
          </mxGeometry>
        </mxCell>
        <mxCell id="UJpK7ksH3YRqFfvnF_kW-304" value="" style="group" parent="1" vertex="1" connectable="0">
          <mxGeometry x="3476" y="-430" width="80" height="120" as="geometry" />
        </mxCell>
        <mxCell id="UJpK7ksH3YRqFfvnF_kW-305" value="" style="rounded=1;whiteSpace=wrap;html=1;shadow=0;fontSize=15;movable=1;resizable=1;rotatable=1;deletable=1;editable=1;connectable=1;fillColor=#d5e8d4;strokeColor=#82b366;" parent="UJpK7ksH3YRqFfvnF_kW-304" vertex="1">
          <mxGeometry width="80" height="120" as="geometry" />
        </mxCell>
        <mxCell id="UJpK7ksH3YRqFfvnF_kW-306" value="" style="outlineConnect=0;dashed=0;verticalLabelPosition=bottom;verticalAlign=top;align=center;html=1;shape=mxgraph.aws3.application_load_balancer;fillColor=#F58534;gradientColor=none;fontSize=18;strokeColor=default;shadow=0;movable=1;resizable=1;rotatable=1;deletable=1;editable=1;connectable=1;" parent="UJpK7ksH3YRqFfvnF_kW-304" vertex="1">
          <mxGeometry y="40" width="80" height="80" as="geometry" />
        </mxCell>
        <mxCell id="UJpK7ksH3YRqFfvnF_kW-307" value="&lt;font style=&quot;font-size: 13px;&quot;&gt;PARTICIAN&amp;nbsp;&lt;br&gt;GATEWAY&lt;/font&gt;" style="text;html=1;strokeColor=none;fillColor=none;align=center;verticalAlign=middle;whiteSpace=wrap;rounded=0;shadow=0;fontSize=18;movable=1;resizable=1;rotatable=1;deletable=1;editable=1;connectable=1;" parent="UJpK7ksH3YRqFfvnF_kW-304" vertex="1">
          <mxGeometry width="80" height="40" as="geometry" />
        </mxCell>
        <mxCell id="UJpK7ksH3YRqFfvnF_kW-308" value="&lt;font style=&quot;font-size: 20px;&quot;&gt;Изначальное состояние системы.&lt;br style=&quot;font-size: 20px;&quot;&gt;Работают партиции A, B, C - все первой версии. Traffic gateway балансирует трафик между двумя версиями. Это позволит бесшовно переключать трафик на новую версию и избежать ситуаций, когда не все партиции обновились и ответ приходит не совсем корректный.&amp;nbsp;Пробуем поднять новый кластер и проводим healthcheck. В случае неудачи retry.&amp;nbsp;&lt;/font&gt;&lt;span style=&quot;font-size: 20px;&quot;&gt;&lt;br style=&quot;font-size: 20px;&quot;&gt;&lt;/span&gt;" style="text;html=1;strokeColor=none;fillColor=none;align=center;verticalAlign=middle;whiteSpace=wrap;rounded=0;shadow=0;fontFamily=Helvetica;fontSize=20;fontColor=default;" parent="1" vertex="1">
          <mxGeometry x="2778" y="-680" width="350" height="360" as="geometry" />
        </mxCell>
        <mxCell id="UJpK7ksH3YRqFfvnF_kW-309" value="" style="group" parent="1" vertex="1" connectable="0">
          <mxGeometry x="3778" y="-220" width="80" height="120" as="geometry" />
        </mxCell>
        <mxCell id="UJpK7ksH3YRqFfvnF_kW-310" value="" style="rounded=1;whiteSpace=wrap;html=1;shadow=0;fontSize=15;movable=1;resizable=1;rotatable=1;deletable=1;editable=1;connectable=1;fillColor=#d5e8d4;strokeColor=#82b366;" parent="UJpK7ksH3YRqFfvnF_kW-309" vertex="1">
          <mxGeometry width="80" height="120" as="geometry" />
        </mxCell>
        <mxCell id="UJpK7ksH3YRqFfvnF_kW-311" value="" style="outlineConnect=0;dashed=0;verticalLabelPosition=bottom;verticalAlign=top;align=center;html=1;shape=mxgraph.aws3.application_load_balancer;fillColor=#F58534;gradientColor=none;fontSize=18;strokeColor=default;shadow=0;movable=1;resizable=1;rotatable=1;deletable=1;editable=1;connectable=1;" parent="UJpK7ksH3YRqFfvnF_kW-309" vertex="1">
          <mxGeometry y="40" width="80" height="80" as="geometry" />
        </mxCell>
        <mxCell id="UJpK7ksH3YRqFfvnF_kW-312" value="&lt;span style=&quot;font-size: 13px;&quot;&gt;TRAFFIC GATEWAY&lt;/span&gt;" style="text;html=1;strokeColor=none;fillColor=none;align=center;verticalAlign=middle;whiteSpace=wrap;rounded=0;shadow=0;fontSize=18;movable=1;resizable=1;rotatable=1;deletable=1;editable=1;connectable=1;" parent="UJpK7ksH3YRqFfvnF_kW-309" vertex="1">
          <mxGeometry width="80" height="40" as="geometry" />
        </mxCell>
        <mxCell id="UJpK7ksH3YRqFfvnF_kW-313" style="edgeStyle=orthogonalEdgeStyle;rounded=0;orthogonalLoop=1;jettySize=auto;html=1;strokeWidth=3;fontFamily=Helvetica;fontSize=16;fontColor=default;fillColor=#d5e8d4;strokeColor=#82b366;exitX=0.5;exitY=0;exitDx=0;exitDy=0;entryX=0.5;entryY=1;entryDx=0;entryDy=0;" parent="1" source="UJpK7ksH3YRqFfvnF_kW-312" target="UJpK7ksH3YRqFfvnF_kW-305" edge="1">
          <mxGeometry relative="1" as="geometry">
            <mxPoint x="3566" y="-360" as="sourcePoint" />
            <mxPoint x="3726" y="-460" as="targetPoint" />
          </mxGeometry>
        </mxCell>
        <mxCell id="UJpK7ksH3YRqFfvnF_kW-314" value="" style="group" parent="1" vertex="1" connectable="0">
          <mxGeometry x="3858" y="-610" width="120" height="140" as="geometry" />
        </mxCell>
        <mxCell id="UJpK7ksH3YRqFfvnF_kW-315" value="" style="sketch=0;pointerEvents=1;shadow=0;dashed=0;html=1;strokeColor=none;fillColor=#E6E6E6;labelPosition=center;verticalLabelPosition=bottom;verticalAlign=top;align=center;outlineConnect=0;shape=mxgraph.veeam2.server;rounded=0;fontFamily=Helvetica;fontSize=13;fontColor=default;movable=1;resizable=1;rotatable=1;deletable=1;editable=1;connectable=1;" parent="UJpK7ksH3YRqFfvnF_kW-314" vertex="1">
          <mxGeometry width="120" height="140" as="geometry" />
        </mxCell>
        <mxCell id="UJpK7ksH3YRqFfvnF_kW-387" value="" style="group;movable=1;resizable=1;rotatable=1;deletable=1;editable=1;connectable=1;locked=0;" parent="UJpK7ksH3YRqFfvnF_kW-314" vertex="1" connectable="0">
          <mxGeometry x="20" y="10" width="80" height="120" as="geometry" />
        </mxCell>
        <mxCell id="UJpK7ksH3YRqFfvnF_kW-388" value="" style="aspect=fixed;perimeter=ellipsePerimeter;html=1;align=center;shadow=0;dashed=0;fontColor=#4277BB;labelBackgroundColor=#ffffff;fontSize=12;spacingTop=3;image;image=img/lib/ibm/applications/index.svg;imageBackground=none;movable=0;resizable=0;rotatable=0;deletable=0;editable=0;connectable=0;" parent="UJpK7ksH3YRqFfvnF_kW-387" vertex="1">
          <mxGeometry y="20" width="80" height="80" as="geometry" />
        </mxCell>
        <mxCell id="UJpK7ksH3YRqFfvnF_kW-389" value="&lt;div style=&quot;&quot;&gt;&lt;span style=&quot;font-size: 15px; background-color: initial;&quot;&gt;partition&amp;nbsp;&lt;/span&gt;&lt;b style=&quot;font-size: 15px; background-color: initial;&quot;&gt;A&lt;/b&gt;&lt;/div&gt;" style="text;html=1;strokeColor=none;fillColor=none;align=center;verticalAlign=middle;whiteSpace=wrap;rounded=0;movable=0;resizable=0;rotatable=0;deletable=0;editable=0;connectable=0;" parent="UJpK7ksH3YRqFfvnF_kW-387" vertex="1">
          <mxGeometry width="80" height="20" as="geometry" />
        </mxCell>
        <mxCell id="UJpK7ksH3YRqFfvnF_kW-390" value="&lt;span style=&quot;color: rgb(0, 0, 0); font-family: Helvetica; font-size: 15px; font-style: normal; font-variant-ligatures: normal; font-variant-caps: normal; letter-spacing: normal; orphans: 2; text-align: center; text-indent: 0px; text-transform: none; widows: 2; word-spacing: 0px; -webkit-text-stroke-width: 0px; background-color: initial; text-decoration-thickness: initial; text-decoration-style: initial; text-decoration-color: initial;&quot;&gt;version &lt;b&gt;1&lt;/b&gt;&lt;/span&gt;" style="text;html=1;strokeColor=none;fillColor=none;align=center;verticalAlign=middle;whiteSpace=wrap;rounded=0;fontSize=15;movable=0;resizable=0;rotatable=0;deletable=0;editable=0;connectable=0;" parent="UJpK7ksH3YRqFfvnF_kW-387" vertex="1">
          <mxGeometry y="100" width="80" height="20" as="geometry" />
        </mxCell>
        <mxCell id="UJpK7ksH3YRqFfvnF_kW-391" value="" style="rounded=1;whiteSpace=wrap;html=1;fontSize=15;fillColor=none;movable=1;resizable=1;rotatable=1;deletable=1;editable=1;connectable=1;locked=0;" parent="UJpK7ksH3YRqFfvnF_kW-387" vertex="1">
          <mxGeometry width="80" height="120" as="geometry" />
        </mxCell>
        <mxCell id="UJpK7ksH3YRqFfvnF_kW-322" value="" style="group" parent="1" vertex="1" connectable="0">
          <mxGeometry x="4257" y="-610" width="120" height="140" as="geometry" />
        </mxCell>
        <mxCell id="UJpK7ksH3YRqFfvnF_kW-323" value="" style="sketch=0;pointerEvents=1;shadow=0;dashed=0;html=1;strokeColor=none;fillColor=#E6E6E6;labelPosition=center;verticalLabelPosition=bottom;verticalAlign=top;align=center;outlineConnect=0;shape=mxgraph.veeam2.server;rounded=0;fontFamily=Helvetica;fontSize=13;fontColor=default;movable=1;resizable=1;rotatable=1;deletable=1;editable=1;connectable=1;" parent="UJpK7ksH3YRqFfvnF_kW-322" vertex="1">
          <mxGeometry width="120" height="140" as="geometry" />
        </mxCell>
        <mxCell id="UJpK7ksH3YRqFfvnF_kW-329" value="" style="group" parent="1" vertex="1" connectable="0">
          <mxGeometry x="4057" y="-610" width="120" height="140" as="geometry" />
        </mxCell>
        <mxCell id="UJpK7ksH3YRqFfvnF_kW-330" value="" style="sketch=0;pointerEvents=1;shadow=0;dashed=0;html=1;strokeColor=none;fillColor=#E6E6E6;labelPosition=center;verticalLabelPosition=bottom;verticalAlign=top;align=center;outlineConnect=0;shape=mxgraph.veeam2.server;rounded=0;fontFamily=Helvetica;fontSize=13;fontColor=default;movable=1;resizable=1;rotatable=1;deletable=1;editable=1;connectable=1;" parent="UJpK7ksH3YRqFfvnF_kW-329" vertex="1">
          <mxGeometry width="120" height="140" as="geometry" />
        </mxCell>
        <mxCell id="UJpK7ksH3YRqFfvnF_kW-409" value="" style="group;movable=1;resizable=1;rotatable=1;deletable=1;editable=1;connectable=1;locked=0;" parent="UJpK7ksH3YRqFfvnF_kW-329" vertex="1" connectable="0">
          <mxGeometry x="20" y="10" width="80" height="120" as="geometry" />
        </mxCell>
        <mxCell id="UJpK7ksH3YRqFfvnF_kW-410" value="" style="group;movable=0;resizable=0;rotatable=0;deletable=0;editable=0;connectable=0;" parent="UJpK7ksH3YRqFfvnF_kW-409" vertex="1" connectable="0">
          <mxGeometry width="80" height="120" as="geometry" />
        </mxCell>
        <mxCell id="UJpK7ksH3YRqFfvnF_kW-411" value="" style="aspect=fixed;perimeter=ellipsePerimeter;html=1;align=center;shadow=0;dashed=0;fontColor=#4277BB;labelBackgroundColor=#ffffff;fontSize=12;spacingTop=3;image;image=img/lib/ibm/applications/index.svg;imageBackground=none;movable=0;resizable=0;rotatable=0;deletable=0;editable=0;connectable=0;" parent="UJpK7ksH3YRqFfvnF_kW-410" vertex="1">
          <mxGeometry y="20" width="80" height="80" as="geometry" />
        </mxCell>
        <mxCell id="UJpK7ksH3YRqFfvnF_kW-412" value="&lt;div style=&quot;&quot;&gt;&lt;span style=&quot;font-size: 15px; background-color: initial;&quot;&gt;partition &lt;b&gt;B&lt;/b&gt;&lt;/span&gt;&lt;/div&gt;" style="text;html=1;strokeColor=none;fillColor=none;align=center;verticalAlign=middle;whiteSpace=wrap;rounded=0;movable=0;resizable=0;rotatable=0;deletable=0;editable=0;connectable=0;" parent="UJpK7ksH3YRqFfvnF_kW-410" vertex="1">
          <mxGeometry width="80" height="20" as="geometry" />
        </mxCell>
        <mxCell id="UJpK7ksH3YRqFfvnF_kW-413" value="&lt;span style=&quot;color: rgb(0, 0, 0); font-family: Helvetica; font-size: 15px; font-style: normal; font-variant-ligatures: normal; font-variant-caps: normal; letter-spacing: normal; orphans: 2; text-align: center; text-indent: 0px; text-transform: none; widows: 2; word-spacing: 0px; -webkit-text-stroke-width: 0px; background-color: initial; text-decoration-thickness: initial; text-decoration-style: initial; text-decoration-color: initial;&quot;&gt;version &lt;b&gt;1&lt;/b&gt;&lt;/span&gt;" style="text;html=1;strokeColor=none;fillColor=none;align=center;verticalAlign=middle;whiteSpace=wrap;rounded=0;fontSize=15;movable=0;resizable=0;rotatable=0;deletable=0;editable=0;connectable=0;" parent="UJpK7ksH3YRqFfvnF_kW-410" vertex="1">
          <mxGeometry y="100" width="80" height="20" as="geometry" />
        </mxCell>
        <mxCell id="UJpK7ksH3YRqFfvnF_kW-414" value="" style="rounded=1;whiteSpace=wrap;html=1;fontSize=15;fillColor=none;movable=1;resizable=1;rotatable=1;deletable=1;editable=1;connectable=1;locked=0;" parent="UJpK7ksH3YRqFfvnF_kW-409" vertex="1">
          <mxGeometry width="80" height="120" as="geometry" />
        </mxCell>
        <mxCell id="UJpK7ksH3YRqFfvnF_kW-336" style="edgeStyle=orthogonalEdgeStyle;rounded=0;orthogonalLoop=1;jettySize=auto;html=1;strokeWidth=3;fontFamily=Helvetica;fontSize=16;fontColor=default;fillColor=#f5f5f5;strokeColor=#666666;" parent="1" target="UJpK7ksH3YRqFfvnF_kW-330" edge="1">
          <mxGeometry relative="1" as="geometry">
            <mxPoint x="4117" y="-430" as="sourcePoint" />
          </mxGeometry>
        </mxCell>
        <mxCell id="UJpK7ksH3YRqFfvnF_kW-337" style="edgeStyle=orthogonalEdgeStyle;rounded=0;orthogonalLoop=1;jettySize=auto;html=1;strokeWidth=3;fontFamily=Helvetica;fontSize=16;fontColor=default;fillColor=#f5f5f5;strokeColor=#666666;" parent="1" target="UJpK7ksH3YRqFfvnF_kW-323" edge="1">
          <mxGeometry relative="1" as="geometry">
            <mxPoint x="4158" y="-370" as="sourcePoint" />
          </mxGeometry>
        </mxCell>
        <mxCell id="UJpK7ksH3YRqFfvnF_kW-343" value="OLD version" style="swimlane;whiteSpace=wrap;html=1;" parent="1" vertex="1">
          <mxGeometry x="3238" y="-660" width="560" height="380" as="geometry" />
        </mxCell>
        <mxCell id="UJpK7ksH3YRqFfvnF_kW-344" value="NEW version" style="swimlane;whiteSpace=wrap;html=1;startSize=23;" parent="1" vertex="1">
          <mxGeometry x="3838" y="-660" width="560" height="380" as="geometry" />
        </mxCell>
        <mxCell id="UJpK7ksH3YRqFfvnF_kW-359" value="" style="group;movable=1;resizable=1;rotatable=1;deletable=1;editable=1;connectable=1;" parent="UJpK7ksH3YRqFfvnF_kW-344" vertex="1" connectable="0">
          <mxGeometry x="239" y="230" width="80" height="120" as="geometry" />
        </mxCell>
        <mxCell id="UJpK7ksH3YRqFfvnF_kW-360" value="" style="rounded=1;whiteSpace=wrap;html=1;shadow=0;fontSize=15;movable=1;resizable=1;rotatable=1;deletable=1;editable=1;connectable=1;fillColor=#f8cecc;strokeColor=#b85450;" parent="UJpK7ksH3YRqFfvnF_kW-359" vertex="1">
          <mxGeometry width="80" height="120" as="geometry" />
        </mxCell>
        <mxCell id="UJpK7ksH3YRqFfvnF_kW-361" value="" style="outlineConnect=0;dashed=0;verticalLabelPosition=bottom;verticalAlign=top;align=center;html=1;shape=mxgraph.aws3.application_load_balancer;fillColor=#F58534;gradientColor=none;fontSize=18;strokeColor=default;shadow=0;movable=1;resizable=1;rotatable=1;deletable=1;editable=1;connectable=1;" parent="UJpK7ksH3YRqFfvnF_kW-359" vertex="1">
          <mxGeometry y="40" width="80" height="80" as="geometry" />
        </mxCell>
        <mxCell id="UJpK7ksH3YRqFfvnF_kW-362" value="&lt;font style=&quot;font-size: 13px;&quot;&gt;PARTICIAN&amp;nbsp;&lt;br&gt;GATEWAY&lt;/font&gt;" style="text;html=1;strokeColor=none;fillColor=none;align=center;verticalAlign=middle;whiteSpace=wrap;rounded=0;shadow=0;fontSize=18;movable=1;resizable=1;rotatable=1;deletable=1;editable=1;connectable=1;" parent="UJpK7ksH3YRqFfvnF_kW-359" vertex="1">
          <mxGeometry width="80" height="40" as="geometry" />
        </mxCell>
        <mxCell id="UJpK7ksH3YRqFfvnF_kW-415" value="" style="group;movable=1;resizable=1;rotatable=1;deletable=1;editable=1;connectable=1;locked=0;" parent="1" vertex="1" connectable="0">
          <mxGeometry x="4278" y="-600" width="80" height="120" as="geometry" />
        </mxCell>
        <mxCell id="UJpK7ksH3YRqFfvnF_kW-416" value="" style="aspect=fixed;perimeter=ellipsePerimeter;html=1;align=center;shadow=0;dashed=0;fontColor=#4277BB;labelBackgroundColor=#ffffff;fontSize=12;spacingTop=3;image;image=img/lib/ibm/applications/index.svg;imageBackground=none;movable=0;resizable=0;rotatable=0;deletable=0;editable=0;connectable=0;" parent="UJpK7ksH3YRqFfvnF_kW-415" vertex="1">
          <mxGeometry y="20" width="80" height="80" as="geometry" />
        </mxCell>
        <mxCell id="UJpK7ksH3YRqFfvnF_kW-417" value="&lt;div style=&quot;&quot;&gt;&lt;span style=&quot;font-size: 15px; background-color: initial;&quot;&gt;partition &lt;b&gt;C&lt;/b&gt;&lt;/span&gt;&lt;/div&gt;" style="text;html=1;strokeColor=none;fillColor=none;align=center;verticalAlign=middle;whiteSpace=wrap;rounded=0;movable=0;resizable=0;rotatable=0;deletable=0;editable=0;connectable=0;" parent="UJpK7ksH3YRqFfvnF_kW-415" vertex="1">
          <mxGeometry width="80" height="20" as="geometry" />
        </mxCell>
        <mxCell id="UJpK7ksH3YRqFfvnF_kW-418" value="&lt;span style=&quot;color: rgb(0, 0, 0); font-family: Helvetica; font-size: 15px; font-style: normal; font-variant-ligatures: normal; font-variant-caps: normal; letter-spacing: normal; orphans: 2; text-align: center; text-indent: 0px; text-transform: none; widows: 2; word-spacing: 0px; -webkit-text-stroke-width: 0px; background-color: initial; text-decoration-thickness: initial; text-decoration-style: initial; text-decoration-color: initial;&quot;&gt;version &lt;b&gt;1&lt;/b&gt;&lt;/span&gt;" style="text;html=1;strokeColor=none;fillColor=none;align=center;verticalAlign=middle;whiteSpace=wrap;rounded=0;fontSize=15;movable=0;resizable=0;rotatable=0;deletable=0;editable=0;connectable=0;" parent="UJpK7ksH3YRqFfvnF_kW-415" vertex="1">
          <mxGeometry y="100" width="80" height="20" as="geometry" />
        </mxCell>
        <mxCell id="UJpK7ksH3YRqFfvnF_kW-419" value="" style="rounded=1;whiteSpace=wrap;html=1;fontSize=15;fillColor=none;movable=1;resizable=1;rotatable=1;deletable=1;editable=1;connectable=1;locked=0;" parent="UJpK7ksH3YRqFfvnF_kW-415" vertex="1">
          <mxGeometry width="80" height="120" as="geometry" />
        </mxCell>
        <mxCell id="UE70bfjSj6J-YL74LSlg-9" style="edgeStyle=orthogonalEdgeStyle;rounded=0;orthogonalLoop=1;jettySize=auto;html=1;fontFamily=Helvetica;fontSize=16;fontColor=default;strokeWidth=3;fillColor=#f5f5f5;strokeColor=#666666;exitX=0;exitY=0.5;exitDx=0;exitDy=0;" parent="1" edge="1" target="UJpK7ksH3YRqFfvnF_kW-315" source="UJpK7ksH3YRqFfvnF_kW-360">
          <mxGeometry relative="1" as="geometry">
            <mxPoint x="4088" y="-360" as="sourcePoint" />
            <mxPoint x="3928" y="-460" as="targetPoint" />
          </mxGeometry>
        </mxCell>
        <mxCell id="UE70bfjSj6J-YL74LSlg-34" value="&lt;h2 style=&quot;border-color: var(--border-color); font-size: 22px;&quot;&gt;Доставка файлов индекса&lt;/h2&gt;" style="swimlane;whiteSpace=wrap;html=1;" parent="1" vertex="1">
          <mxGeometry x="2778" y="-2280" width="1780" height="730" as="geometry" />
        </mxCell>
        <mxCell id="UJpK7ksH3YRqFfvnF_kW-182" value="После того как мы рассчитали кластеры и построили индексы для каждого кластера мы помещаем эту все это в хранилище S3 и обозначем соответствующей версией.На S3 хранятся различные версии индексов, в случае если понадобится откатить до предыдущей кластер упадет, их можно будет восстановить." style="text;html=1;strokeColor=none;fillColor=none;align=center;verticalAlign=middle;whiteSpace=wrap;rounded=0;shadow=0;fontFamily=Helvetica;fontSize=18;fontColor=default;" parent="UE70bfjSj6J-YL74LSlg-34" vertex="1">
          <mxGeometry x="30" y="270" width="350" height="240" as="geometry" />
        </mxCell>
        <mxCell id="e7Cpro7utsQeBuYdya2P-19" value="&lt;p style=&quot;font-size: 20px;&quot;&gt;Bert model&lt;/p&gt;" style="rounded=1;whiteSpace=wrap;html=1;shadow=0;strokeColor=#000000;fontFamily=Helvetica;fontSize=40;fontColor=#000000;fillColor=none;strokeWidth=4;" vertex="1" parent="UE70bfjSj6J-YL74LSlg-34">
          <mxGeometry x="472.29" y="100" width="120" height="80" as="geometry" />
        </mxCell>
        <mxCell id="YXiRsPyqj9DePGO95qDk-102" value="" style="group;movable=1;resizable=1;rotatable=1;deletable=1;editable=1;connectable=1;" parent="UE70bfjSj6J-YL74LSlg-34" vertex="1" connectable="0">
          <mxGeometry x="754.5799999999999" y="79.99999999999994" width="80" height="120" as="geometry" />
        </mxCell>
        <mxCell id="YXiRsPyqj9DePGO95qDk-74" value="" style="outlineConnect=0;dashed=0;verticalLabelPosition=bottom;verticalAlign=top;align=center;html=1;shape=mxgraph.aws3.machine_learning;fillColor=#2E73B8;gradientColor=none;shadow=0;strokeColor=#000000;fontSize=13;movable=0;resizable=0;rotatable=0;deletable=0;editable=0;connectable=0;" parent="YXiRsPyqj9DePGO95qDk-102" vertex="1">
          <mxGeometry y="27" width="76.5" height="93" as="geometry" />
        </mxCell>
        <mxCell id="YXiRsPyqj9DePGO95qDk-75" value="EMBEDDING" style="text;html=1;strokeColor=none;fillColor=none;align=center;verticalAlign=middle;whiteSpace=wrap;rounded=0;shadow=0;fontSize=13;movable=0;resizable=0;rotatable=0;deletable=0;editable=0;connectable=0;" parent="YXiRsPyqj9DePGO95qDk-102" vertex="1">
          <mxGeometry width="80" height="30" as="geometry" />
        </mxCell>
        <mxCell id="YXiRsPyqj9DePGO95qDk-76" value="" style="rounded=1;whiteSpace=wrap;html=1;shadow=0;strokeColor=#000000;fontSize=13;fillColor=none;movable=1;resizable=1;rotatable=1;deletable=1;editable=1;connectable=1;locked=0;" parent="YXiRsPyqj9DePGO95qDk-102" vertex="1">
          <mxGeometry width="80" height="120" as="geometry" />
        </mxCell>
        <mxCell id="e7Cpro7utsQeBuYdya2P-18" value="" style="sketch=0;outlineConnect=0;fontColor=#232F3E;gradientColor=none;fillColor=#3F8624;strokeColor=none;dashed=0;verticalLabelPosition=bottom;verticalAlign=top;align=center;html=1;fontSize=12;fontStyle=0;aspect=fixed;pointerEvents=1;shape=mxgraph.aws4.iot_analytics_pipeline;rounded=0;shadow=0;fontFamily=Helvetica;" vertex="1" parent="UE70bfjSj6J-YL74LSlg-34">
          <mxGeometry x="592.29" y="96.30999999999989" width="162.29" height="87.38" as="geometry" />
        </mxCell>
        <mxCell id="e7Cpro7utsQeBuYdya2P-20" value="" style="sketch=0;outlineConnect=0;fontColor=#232F3E;gradientColor=none;fillColor=#3F8624;strokeColor=none;dashed=0;verticalLabelPosition=bottom;verticalAlign=top;align=center;html=1;fontSize=12;fontStyle=0;aspect=fixed;pointerEvents=1;shape=mxgraph.aws4.iot_analytics_pipeline;rounded=0;shadow=0;fontFamily=Helvetica;" vertex="1" parent="UE70bfjSj6J-YL74LSlg-34">
          <mxGeometry x="310.00000000000006" y="96.30999999999989" width="162.29" height="87.38" as="geometry" />
        </mxCell>
        <mxCell id="e7Cpro7utsQeBuYdya2P-21" value="&lt;p style=&quot;font-size: 20px;&quot;&gt;CSV с вопросами&lt;/p&gt;" style="rounded=1;whiteSpace=wrap;html=1;shadow=0;strokeColor=#000000;fontFamily=Helvetica;fontSize=40;fontColor=#000000;fillColor=none;strokeWidth=4;" vertex="1" parent="UE70bfjSj6J-YL74LSlg-34">
          <mxGeometry x="190.00000000000006" y="100" width="120" height="80" as="geometry" />
        </mxCell>
        <mxCell id="e7Cpro7utsQeBuYdya2P-22" value="&lt;b&gt;&lt;font style=&quot;font-size: 18px;&quot;&gt;S3 backups&lt;/font&gt;&lt;/b&gt;&lt;br&gt;Ver 1&lt;br&gt;Ver 2&lt;br&gt;..." style="shape=datastore;whiteSpace=wrap;html=1;" vertex="1" parent="UE70bfjSj6J-YL74LSlg-34">
          <mxGeometry x="1430" y="570" width="194.5" height="130" as="geometry" />
        </mxCell>
        <mxCell id="e7Cpro7utsQeBuYdya2P-1" value="Процесс обновления системы" style="swimlane;whiteSpace=wrap;html=1;startSize=23;fontSize=20;" vertex="1" parent="1">
          <mxGeometry x="2690" y="-1520" width="2180" height="3370" as="geometry" />
        </mxCell>
        <mxCell id="UJpK7ksH3YRqFfvnF_kW-183" value="&lt;font style=&quot;font-size: 16px;&quot;&gt;Check new index on S3&lt;/font&gt;" style="rounded=1;whiteSpace=wrap;html=1;absoluteArcSize=1;arcSize=14;strokeWidth=2;" parent="e7Cpro7utsQeBuYdya2P-1" vertex="1">
          <mxGeometry x="1227" y="80" width="172" height="100" as="geometry" />
        </mxCell>
        <mxCell id="UE70bfjSj6J-YL74LSlg-33" value="У нас работает процесс, который раз в некоторый промежуток времени (например раз в день) ходит в хранилище и проверяет появилась ли новая версия индексов. Когда он обнаружил новую версию индексов, то инициирует процесс обновления системы. Сначала начинает переливать индексы на виртуалку кластера.&amp;nbsp; По 1 индексу на 1 машину.&lt;span style=&quot;font-size: 19px;&quot;&gt;&lt;br style=&quot;font-size: 19px;&quot;&gt;&lt;/span&gt;" style="text;html=1;strokeColor=none;fillColor=none;align=center;verticalAlign=middle;whiteSpace=wrap;rounded=0;shadow=0;fontFamily=Helvetica;fontSize=19;fontColor=default;" parent="e7Cpro7utsQeBuYdya2P-1" vertex="1">
          <mxGeometry x="608" y="180" width="350" height="270" as="geometry" />
        </mxCell>
        <mxCell id="UJpK7ksH3YRqFfvnF_kW-206" value="переливка&amp;nbsp;&lt;br&gt;данных прошла&lt;br&gt;успешно?" style="rhombus;whiteSpace=wrap;html=1;fontSize=13;verticalAlign=top;fillColor=#E6E6E6;strokeColor=#23445d;sketch=0;shadow=0;dashed=0;rounded=0;" parent="e7Cpro7utsQeBuYdya2P-1" vertex="1">
          <mxGeometry x="1215.25" y="590" width="195.5" height="60" as="geometry" />
        </mxCell>
        <mxCell id="e7Cpro7utsQeBuYdya2P-8" value="&lt;span style=&quot;font-size: 15px;&quot;&gt;Если индексы попали на целевые машины успешно, создаем кластер из партиций и gateway параллельно существующему кластеру но с новой версией индексов и центроидов кластеров и готовим его принимать потоки запросов&lt;br style=&quot;font-size: 15px;&quot;&gt;&lt;/span&gt;" style="text;html=1;strokeColor=none;fillColor=none;align=center;verticalAlign=middle;whiteSpace=wrap;rounded=0;shadow=0;fontFamily=Helvetica;fontSize=15;fontColor=default;" vertex="1" parent="e7Cpro7utsQeBuYdya2P-1">
          <mxGeometry x="1458" y="700" width="272" height="135" as="geometry" />
        </mxCell>
        <mxCell id="UJpK7ksH3YRqFfvnF_kW-213" value="&lt;span style=&quot;font-size: 15px;&quot;&gt;Если данные не перелились, делаем retry для тех нод, на которых произошел сбой. Если после 3 ретраев не удалось перелить индексы, ищем версию в бэкапах S3, если она там есть пытаемся залить ее, если залить не получилось ни в каком виде, то пишем логи и сохраянем, чтобы можно было проверить, что пошло не так. Процесс обнолвения система на этом останавливается.&lt;br style=&quot;font-size: 15px;&quot;&gt;&lt;/span&gt;" style="text;html=1;strokeColor=none;fillColor=none;align=center;verticalAlign=middle;whiteSpace=wrap;rounded=0;shadow=0;fontFamily=Helvetica;fontSize=15;fontColor=default;" parent="e7Cpro7utsQeBuYdya2P-1" vertex="1">
          <mxGeometry x="1688" y="350" width="452" height="135" as="geometry" />
        </mxCell>
        <mxCell id="2j8hGIhh0hBBkrBzc8hK-437" value="&lt;span style=&quot;font-size: 20px;&quot;&gt;Когда мы дошли до соотношения трафика 5:95 и убедились в том, что система работает стабильно и корректно, мы перестаем передавать трафик на старую версию.&lt;br&gt;&lt;/span&gt;" style="text;html=1;strokeColor=none;fillColor=none;align=center;verticalAlign=middle;whiteSpace=wrap;rounded=0;shadow=0;fontFamily=Helvetica;fontSize=16;fontColor=default;" parent="e7Cpro7utsQeBuYdya2P-1" vertex="1">
          <mxGeometry x="88" y="2080" width="350" height="360" as="geometry" />
        </mxCell>
        <mxCell id="2j8hGIhh0hBBkrBzc8hK-438" value="" style="group" parent="e7Cpro7utsQeBuYdya2P-1" vertex="1" connectable="0">
          <mxGeometry x="1088" y="2540" width="80" height="120" as="geometry" />
        </mxCell>
        <mxCell id="2j8hGIhh0hBBkrBzc8hK-439" value="" style="rounded=1;whiteSpace=wrap;html=1;shadow=0;fontSize=15;movable=1;resizable=1;rotatable=1;deletable=1;editable=1;connectable=1;fillColor=#d5e8d4;strokeColor=#82b366;" parent="2j8hGIhh0hBBkrBzc8hK-438" vertex="1">
          <mxGeometry width="80" height="120" as="geometry" />
        </mxCell>
        <mxCell id="2j8hGIhh0hBBkrBzc8hK-440" value="" style="outlineConnect=0;dashed=0;verticalLabelPosition=bottom;verticalAlign=top;align=center;html=1;shape=mxgraph.aws3.application_load_balancer;fillColor=#F58534;gradientColor=none;fontSize=18;strokeColor=default;shadow=0;movable=1;resizable=1;rotatable=1;deletable=1;editable=1;connectable=1;" parent="2j8hGIhh0hBBkrBzc8hK-438" vertex="1">
          <mxGeometry y="40" width="80" height="80" as="geometry" />
        </mxCell>
        <mxCell id="2j8hGIhh0hBBkrBzc8hK-441" value="&lt;span style=&quot;font-size: 13px;&quot;&gt;TRAFFIC GATEWAY&lt;/span&gt;" style="text;html=1;strokeColor=none;fillColor=none;align=center;verticalAlign=middle;whiteSpace=wrap;rounded=0;shadow=0;fontSize=18;movable=1;resizable=1;rotatable=1;deletable=1;editable=1;connectable=1;" parent="2j8hGIhh0hBBkrBzc8hK-438" vertex="1">
          <mxGeometry width="80" height="40" as="geometry" />
        </mxCell>
        <mxCell id="2j8hGIhh0hBBkrBzc8hK-443" value="" style="group" parent="e7Cpro7utsQeBuYdya2P-1" vertex="1" connectable="0">
          <mxGeometry x="1168" y="2150" width="120" height="140" as="geometry" />
        </mxCell>
        <mxCell id="2j8hGIhh0hBBkrBzc8hK-444" value="" style="sketch=0;pointerEvents=1;shadow=0;dashed=0;html=1;strokeColor=none;fillColor=#E6E6E6;labelPosition=center;verticalLabelPosition=bottom;verticalAlign=top;align=center;outlineConnect=0;shape=mxgraph.veeam2.server;rounded=0;fontFamily=Helvetica;fontSize=13;fontColor=default;movable=1;resizable=1;rotatable=1;deletable=1;editable=1;connectable=1;" parent="2j8hGIhh0hBBkrBzc8hK-443" vertex="1">
          <mxGeometry width="120" height="140" as="geometry" />
        </mxCell>
        <mxCell id="2j8hGIhh0hBBkrBzc8hK-445" value="" style="group;movable=1;resizable=1;rotatable=1;deletable=1;editable=1;connectable=1;" parent="2j8hGIhh0hBBkrBzc8hK-443" vertex="1" connectable="0">
          <mxGeometry x="20" y="10" width="80" height="120" as="geometry" />
        </mxCell>
        <mxCell id="2j8hGIhh0hBBkrBzc8hK-446" value="" style="rounded=1;whiteSpace=wrap;html=1;fontSize=15;fillColor=#D5E8D4;movable=1;resizable=1;rotatable=1;deletable=1;editable=1;connectable=1;container=0;strokeColor=#006600;" parent="2j8hGIhh0hBBkrBzc8hK-445" vertex="1">
          <mxGeometry width="80" height="120" as="geometry" />
        </mxCell>
        <mxCell id="2j8hGIhh0hBBkrBzc8hK-447" value="&lt;div style=&quot;&quot;&gt;&lt;span style=&quot;font-size: 15px; background-color: initial;&quot;&gt;partition &lt;b&gt;A&lt;/b&gt;&lt;/span&gt;&lt;/div&gt;" style="text;html=1;strokeColor=none;fillColor=none;align=center;verticalAlign=middle;whiteSpace=wrap;rounded=0;movable=1;resizable=1;rotatable=1;deletable=1;editable=1;connectable=1;container=0;" parent="2j8hGIhh0hBBkrBzc8hK-445" vertex="1">
          <mxGeometry width="80" height="20" as="geometry" />
        </mxCell>
        <mxCell id="2j8hGIhh0hBBkrBzc8hK-448" value="&lt;span style=&quot;color: rgb(0, 0, 0); font-family: Helvetica; font-size: 15px; font-style: normal; font-variant-ligatures: normal; font-variant-caps: normal; letter-spacing: normal; orphans: 2; text-align: center; text-indent: 0px; text-transform: none; widows: 2; word-spacing: 0px; -webkit-text-stroke-width: 0px; background-color: initial; text-decoration-thickness: initial; text-decoration-style: initial; text-decoration-color: initial;&quot;&gt;version &lt;b&gt;2&lt;/b&gt;&lt;/span&gt;" style="text;html=1;strokeColor=none;fillColor=none;align=center;verticalAlign=middle;whiteSpace=wrap;rounded=0;fontSize=15;movable=1;resizable=1;rotatable=1;deletable=1;editable=1;connectable=1;container=0;" parent="2j8hGIhh0hBBkrBzc8hK-445" vertex="1">
          <mxGeometry y="100" width="80" height="20" as="geometry" />
        </mxCell>
        <mxCell id="2j8hGIhh0hBBkrBzc8hK-449" value="" style="aspect=fixed;perimeter=ellipsePerimeter;html=1;align=center;shadow=0;dashed=0;fontColor=#4277BB;labelBackgroundColor=#ffffff;fontSize=12;spacingTop=3;image;image=img/lib/ibm/applications/index.svg;imageBackground=none;movable=1;resizable=1;rotatable=1;deletable=1;editable=1;connectable=1;container=0;" parent="2j8hGIhh0hBBkrBzc8hK-445" vertex="1">
          <mxGeometry y="20" width="80" height="80" as="geometry" />
        </mxCell>
        <mxCell id="2j8hGIhh0hBBkrBzc8hK-450" style="edgeStyle=orthogonalEdgeStyle;rounded=0;orthogonalLoop=1;jettySize=auto;html=1;fontFamily=Helvetica;fontSize=16;fontColor=default;strokeWidth=3;fillColor=#d5e8d4;strokeColor=#82b366;" parent="e7Cpro7utsQeBuYdya2P-1" target="2j8hGIhh0hBBkrBzc8hK-444" edge="1">
          <mxGeometry relative="1" as="geometry">
            <mxPoint x="1387" y="2390" as="sourcePoint" />
          </mxGeometry>
        </mxCell>
        <mxCell id="2j8hGIhh0hBBkrBzc8hK-451" value="" style="group" parent="e7Cpro7utsQeBuYdya2P-1" vertex="1" connectable="0">
          <mxGeometry x="1567" y="2150" width="120" height="140" as="geometry" />
        </mxCell>
        <mxCell id="2j8hGIhh0hBBkrBzc8hK-452" value="" style="sketch=0;pointerEvents=1;shadow=0;dashed=0;html=1;strokeColor=none;fillColor=#E6E6E6;labelPosition=center;verticalLabelPosition=bottom;verticalAlign=top;align=center;outlineConnect=0;shape=mxgraph.veeam2.server;rounded=0;fontFamily=Helvetica;fontSize=13;fontColor=default;movable=1;resizable=1;rotatable=1;deletable=1;editable=1;connectable=1;" parent="2j8hGIhh0hBBkrBzc8hK-451" vertex="1">
          <mxGeometry width="120" height="140" as="geometry" />
        </mxCell>
        <mxCell id="2j8hGIhh0hBBkrBzc8hK-453" value="" style="group;movable=1;resizable=1;rotatable=1;deletable=1;editable=1;connectable=1;" parent="2j8hGIhh0hBBkrBzc8hK-451" vertex="1" connectable="0">
          <mxGeometry x="20" y="10" width="80" height="120" as="geometry" />
        </mxCell>
        <mxCell id="2j8hGIhh0hBBkrBzc8hK-454" value="" style="rounded=1;whiteSpace=wrap;html=1;fontSize=15;fillColor=#D5E8D4;movable=0;resizable=0;rotatable=0;deletable=0;editable=0;connectable=0;container=0;strokeColor=#006600;" parent="2j8hGIhh0hBBkrBzc8hK-453" vertex="1">
          <mxGeometry width="80" height="120" as="geometry" />
        </mxCell>
        <mxCell id="2j8hGIhh0hBBkrBzc8hK-455" value="&lt;div style=&quot;&quot;&gt;&lt;span style=&quot;font-size: 15px; background-color: initial;&quot;&gt;partition &lt;b&gt;C&lt;/b&gt;&lt;/span&gt;&lt;/div&gt;" style="text;html=1;strokeColor=none;fillColor=none;align=center;verticalAlign=middle;whiteSpace=wrap;rounded=0;movable=0;resizable=0;rotatable=0;deletable=0;editable=0;connectable=0;container=0;" parent="2j8hGIhh0hBBkrBzc8hK-453" vertex="1">
          <mxGeometry width="80" height="20" as="geometry" />
        </mxCell>
        <mxCell id="2j8hGIhh0hBBkrBzc8hK-456" value="&lt;span style=&quot;color: rgb(0, 0, 0); font-family: Helvetica; font-size: 15px; font-style: normal; font-variant-ligatures: normal; font-variant-caps: normal; letter-spacing: normal; orphans: 2; text-align: center; text-indent: 0px; text-transform: none; widows: 2; word-spacing: 0px; -webkit-text-stroke-width: 0px; background-color: initial; text-decoration-thickness: initial; text-decoration-style: initial; text-decoration-color: initial;&quot;&gt;version &lt;b&gt;2&lt;/b&gt;&lt;/span&gt;" style="text;html=1;strokeColor=none;fillColor=none;align=center;verticalAlign=middle;whiteSpace=wrap;rounded=0;fontSize=15;movable=1;resizable=1;rotatable=1;deletable=1;editable=1;connectable=1;container=0;locked=0;" parent="2j8hGIhh0hBBkrBzc8hK-453" vertex="1">
          <mxGeometry y="100" width="80" height="20" as="geometry" />
        </mxCell>
        <mxCell id="2j8hGIhh0hBBkrBzc8hK-457" value="" style="aspect=fixed;perimeter=ellipsePerimeter;html=1;align=center;shadow=0;dashed=0;fontColor=#4277BB;labelBackgroundColor=#ffffff;fontSize=12;spacingTop=3;image;image=img/lib/ibm/applications/index.svg;imageBackground=none;movable=0;resizable=0;rotatable=0;deletable=0;editable=0;connectable=0;container=0;" parent="2j8hGIhh0hBBkrBzc8hK-453" vertex="1">
          <mxGeometry y="20" width="80" height="80" as="geometry" />
        </mxCell>
        <mxCell id="2j8hGIhh0hBBkrBzc8hK-458" value="" style="group" parent="e7Cpro7utsQeBuYdya2P-1" vertex="1" connectable="0">
          <mxGeometry x="1367" y="2150" width="120" height="140" as="geometry" />
        </mxCell>
        <mxCell id="2j8hGIhh0hBBkrBzc8hK-459" value="" style="sketch=0;pointerEvents=1;shadow=0;dashed=0;html=1;strokeColor=none;fillColor=#E6E6E6;labelPosition=center;verticalLabelPosition=bottom;verticalAlign=top;align=center;outlineConnect=0;shape=mxgraph.veeam2.server;rounded=0;fontFamily=Helvetica;fontSize=13;fontColor=default;movable=1;resizable=1;rotatable=1;deletable=1;editable=1;connectable=1;" parent="2j8hGIhh0hBBkrBzc8hK-458" vertex="1">
          <mxGeometry width="120" height="140" as="geometry" />
        </mxCell>
        <mxCell id="2j8hGIhh0hBBkrBzc8hK-460" value="" style="group;movable=1;resizable=1;rotatable=1;deletable=1;editable=1;connectable=1;" parent="2j8hGIhh0hBBkrBzc8hK-458" vertex="1" connectable="0">
          <mxGeometry x="20" y="10" width="80" height="120" as="geometry" />
        </mxCell>
        <mxCell id="2j8hGIhh0hBBkrBzc8hK-461" value="" style="rounded=1;whiteSpace=wrap;html=1;fontSize=15;fillColor=#D5E8D4;movable=0;resizable=0;rotatable=0;deletable=0;editable=0;connectable=0;container=0;strokeColor=#006600;" parent="2j8hGIhh0hBBkrBzc8hK-460" vertex="1">
          <mxGeometry width="80" height="120" as="geometry" />
        </mxCell>
        <mxCell id="2j8hGIhh0hBBkrBzc8hK-462" value="&lt;div style=&quot;&quot;&gt;&lt;span style=&quot;font-size: 15px; background-color: initial;&quot;&gt;partition &lt;b&gt;B&lt;/b&gt;&lt;/span&gt;&lt;/div&gt;" style="text;html=1;strokeColor=none;fillColor=none;align=center;verticalAlign=middle;whiteSpace=wrap;rounded=0;movable=0;resizable=0;rotatable=0;deletable=0;editable=0;connectable=0;container=0;" parent="2j8hGIhh0hBBkrBzc8hK-460" vertex="1">
          <mxGeometry width="80" height="20" as="geometry" />
        </mxCell>
        <mxCell id="2j8hGIhh0hBBkrBzc8hK-463" value="&lt;span style=&quot;color: rgb(0, 0, 0); font-family: Helvetica; font-size: 15px; font-style: normal; font-variant-ligatures: normal; font-variant-caps: normal; letter-spacing: normal; orphans: 2; text-align: center; text-indent: 0px; text-transform: none; widows: 2; word-spacing: 0px; -webkit-text-stroke-width: 0px; background-color: initial; text-decoration-thickness: initial; text-decoration-style: initial; text-decoration-color: initial;&quot;&gt;version &lt;b&gt;2&lt;/b&gt;&lt;/span&gt;" style="text;html=1;strokeColor=none;fillColor=none;align=center;verticalAlign=middle;whiteSpace=wrap;rounded=0;fontSize=15;movable=1;resizable=1;rotatable=1;deletable=1;editable=1;connectable=1;container=0;locked=0;" parent="2j8hGIhh0hBBkrBzc8hK-460" vertex="1">
          <mxGeometry y="100" width="80" height="20" as="geometry" />
        </mxCell>
        <mxCell id="2j8hGIhh0hBBkrBzc8hK-464" value="" style="aspect=fixed;perimeter=ellipsePerimeter;html=1;align=center;shadow=0;dashed=0;fontColor=#4277BB;labelBackgroundColor=#ffffff;fontSize=12;spacingTop=3;image;image=img/lib/ibm/applications/index.svg;imageBackground=none;movable=0;resizable=0;rotatable=0;deletable=0;editable=0;connectable=0;container=0;" parent="2j8hGIhh0hBBkrBzc8hK-460" vertex="1">
          <mxGeometry y="20" width="80" height="80" as="geometry" />
        </mxCell>
        <mxCell id="2j8hGIhh0hBBkrBzc8hK-465" style="edgeStyle=orthogonalEdgeStyle;rounded=0;orthogonalLoop=1;jettySize=auto;html=1;strokeWidth=3;fontFamily=Helvetica;fontSize=16;fontColor=default;fillColor=#d5e8d4;strokeColor=#82b366;" parent="e7Cpro7utsQeBuYdya2P-1" target="2j8hGIhh0hBBkrBzc8hK-459" edge="1">
          <mxGeometry relative="1" as="geometry">
            <mxPoint x="1427" y="2330" as="sourcePoint" />
          </mxGeometry>
        </mxCell>
        <mxCell id="2j8hGIhh0hBBkrBzc8hK-466" style="edgeStyle=orthogonalEdgeStyle;rounded=0;orthogonalLoop=1;jettySize=auto;html=1;strokeWidth=3;fontFamily=Helvetica;fontSize=16;fontColor=default;fillColor=#d5e8d4;strokeColor=#82b366;" parent="e7Cpro7utsQeBuYdya2P-1" target="2j8hGIhh0hBBkrBzc8hK-452" edge="1">
          <mxGeometry relative="1" as="geometry">
            <mxPoint x="1467" y="2390" as="sourcePoint" />
          </mxGeometry>
        </mxCell>
        <mxCell id="2j8hGIhh0hBBkrBzc8hK-467" value="" style="group" parent="e7Cpro7utsQeBuYdya2P-1" vertex="1" connectable="0">
          <mxGeometry x="1387" y="2330" width="80" height="120" as="geometry" />
        </mxCell>
        <mxCell id="2j8hGIhh0hBBkrBzc8hK-468" value="" style="rounded=1;whiteSpace=wrap;html=1;shadow=0;fontSize=15;movable=1;resizable=1;rotatable=1;deletable=1;editable=1;connectable=1;fillColor=#d5e8d4;strokeColor=#82b366;" parent="2j8hGIhh0hBBkrBzc8hK-467" vertex="1">
          <mxGeometry width="80" height="120" as="geometry" />
        </mxCell>
        <mxCell id="2j8hGIhh0hBBkrBzc8hK-469" value="" style="outlineConnect=0;dashed=0;verticalLabelPosition=bottom;verticalAlign=top;align=center;html=1;shape=mxgraph.aws3.application_load_balancer;fillColor=#F58534;gradientColor=none;fontSize=18;strokeColor=default;shadow=0;movable=1;resizable=1;rotatable=1;deletable=1;editable=1;connectable=1;" parent="2j8hGIhh0hBBkrBzc8hK-467" vertex="1">
          <mxGeometry y="40" width="80" height="80" as="geometry" />
        </mxCell>
        <mxCell id="2j8hGIhh0hBBkrBzc8hK-470" value="&lt;font style=&quot;font-size: 13px;&quot;&gt;PARTICIAN&amp;nbsp;&lt;br&gt;GATEWAY&lt;/font&gt;" style="text;html=1;strokeColor=none;fillColor=none;align=center;verticalAlign=middle;whiteSpace=wrap;rounded=0;shadow=0;fontSize=18;movable=1;resizable=1;rotatable=1;deletable=1;editable=1;connectable=1;" parent="2j8hGIhh0hBBkrBzc8hK-467" vertex="1">
          <mxGeometry width="80" height="40" as="geometry" />
        </mxCell>
        <mxCell id="2j8hGIhh0hBBkrBzc8hK-471" style="edgeStyle=orthogonalEdgeStyle;rounded=0;orthogonalLoop=1;jettySize=auto;html=1;strokeWidth=3;fontFamily=Helvetica;fontSize=16;fontColor=default;fillColor=#d5e8d4;strokeColor=#82b366;exitX=0.5;exitY=0;exitDx=0;exitDy=0;" parent="e7Cpro7utsQeBuYdya2P-1" source="2j8hGIhh0hBBkrBzc8hK-441" target="2j8hGIhh0hBBkrBzc8hK-469" edge="1">
          <mxGeometry relative="1" as="geometry">
            <mxPoint x="1130" y="2520" as="sourcePoint" />
            <mxPoint x="828" y="2430" as="targetPoint" />
          </mxGeometry>
        </mxCell>
        <mxCell id="2j8hGIhh0hBBkrBzc8hK-473" value="NEW version" style="swimlane;whiteSpace=wrap;html=1;" parent="e7Cpro7utsQeBuYdya2P-1" vertex="1">
          <mxGeometry x="1148" y="2100" width="560" height="380" as="geometry" />
        </mxCell>
        <mxCell id="2j8hGIhh0hBBkrBzc8hK-474" style="edgeStyle=orthogonalEdgeStyle;rounded=0;orthogonalLoop=1;jettySize=auto;html=1;fontFamily=Helvetica;fontSize=16;fontColor=default;strokeWidth=3;fillColor=#d5e8d4;strokeColor=#82b366;" parent="e7Cpro7utsQeBuYdya2P-1" edge="1">
          <mxGeometry relative="1" as="geometry">
            <mxPoint x="789" y="2390" as="sourcePoint" />
            <mxPoint x="630" y="2290" as="targetPoint" />
          </mxGeometry>
        </mxCell>
        <mxCell id="2j8hGIhh0hBBkrBzc8hK-475" style="edgeStyle=orthogonalEdgeStyle;rounded=0;orthogonalLoop=1;jettySize=auto;html=1;strokeWidth=3;fontFamily=Helvetica;fontSize=16;fontColor=default;fillColor=#d5e8d4;strokeColor=#82b366;" parent="e7Cpro7utsQeBuYdya2P-1" edge="1">
          <mxGeometry relative="1" as="geometry">
            <mxPoint x="829" y="2330" as="sourcePoint" />
            <mxPoint x="829" y="2290" as="targetPoint" />
          </mxGeometry>
        </mxCell>
        <mxCell id="2j8hGIhh0hBBkrBzc8hK-476" style="edgeStyle=orthogonalEdgeStyle;rounded=0;orthogonalLoop=1;jettySize=auto;html=1;strokeWidth=3;fontFamily=Helvetica;fontSize=16;fontColor=default;fillColor=#d5e8d4;strokeColor=#82b366;" parent="e7Cpro7utsQeBuYdya2P-1" edge="1">
          <mxGeometry relative="1" as="geometry">
            <mxPoint x="869" y="2390" as="sourcePoint" />
            <mxPoint x="1029" y="2290" as="targetPoint" />
          </mxGeometry>
        </mxCell>
        <mxCell id="2j8hGIhh0hBBkrBzc8hK-477" value="OLD version" style="swimlane;whiteSpace=wrap;html=1;" parent="e7Cpro7utsQeBuYdya2P-1" vertex="1">
          <mxGeometry x="549" y="2100" width="560" height="380" as="geometry" />
        </mxCell>
        <mxCell id="2j8hGIhh0hBBkrBzc8hK-478" value="" style="group;movable=1;resizable=1;rotatable=1;deletable=1;editable=1;connectable=1;" parent="2j8hGIhh0hBBkrBzc8hK-477" vertex="1" connectable="0">
          <mxGeometry x="241" y="230" width="80" height="120" as="geometry" />
        </mxCell>
        <mxCell id="2j8hGIhh0hBBkrBzc8hK-479" value="" style="rounded=1;whiteSpace=wrap;html=1;shadow=0;fontSize=15;movable=1;resizable=1;rotatable=1;deletable=1;editable=1;connectable=1;fillColor=#f8cecc;strokeColor=#b85450;" parent="2j8hGIhh0hBBkrBzc8hK-478" vertex="1">
          <mxGeometry width="80" height="120" as="geometry" />
        </mxCell>
        <mxCell id="2j8hGIhh0hBBkrBzc8hK-480" value="" style="outlineConnect=0;dashed=0;verticalLabelPosition=bottom;verticalAlign=top;align=center;html=1;shape=mxgraph.aws3.application_load_balancer;fillColor=#F58534;gradientColor=none;fontSize=18;strokeColor=default;shadow=0;movable=1;resizable=1;rotatable=1;deletable=1;editable=1;connectable=1;" parent="2j8hGIhh0hBBkrBzc8hK-478" vertex="1">
          <mxGeometry y="40" width="80" height="80" as="geometry" />
        </mxCell>
        <mxCell id="2j8hGIhh0hBBkrBzc8hK-481" value="&lt;font style=&quot;font-size: 13px;&quot;&gt;PARTICIAN&amp;nbsp;&lt;br&gt;GATEWAY&lt;/font&gt;" style="text;html=1;strokeColor=none;fillColor=none;align=center;verticalAlign=middle;whiteSpace=wrap;rounded=0;shadow=0;fontSize=18;movable=1;resizable=1;rotatable=1;deletable=1;editable=1;connectable=1;" parent="2j8hGIhh0hBBkrBzc8hK-478" vertex="1">
          <mxGeometry width="80" height="40" as="geometry" />
        </mxCell>
        <mxCell id="2j8hGIhh0hBBkrBzc8hK-482" value="" style="group" parent="2j8hGIhh0hBBkrBzc8hK-477" vertex="1" connectable="0">
          <mxGeometry x="21" y="50" width="120" height="140" as="geometry" />
        </mxCell>
        <mxCell id="2j8hGIhh0hBBkrBzc8hK-483" value="" style="sketch=0;pointerEvents=1;shadow=0;dashed=0;html=1;strokeColor=none;fillColor=#E6E6E6;labelPosition=center;verticalLabelPosition=bottom;verticalAlign=top;align=center;outlineConnect=0;shape=mxgraph.veeam2.server;rounded=0;fontFamily=Helvetica;fontSize=13;fontColor=default;movable=1;resizable=1;rotatable=1;deletable=1;editable=1;connectable=1;" parent="2j8hGIhh0hBBkrBzc8hK-482" vertex="1">
          <mxGeometry width="120" height="140" as="geometry" />
        </mxCell>
        <mxCell id="2j8hGIhh0hBBkrBzc8hK-484" value="" style="group;movable=1;resizable=1;rotatable=1;deletable=1;editable=1;connectable=1;" parent="2j8hGIhh0hBBkrBzc8hK-482" vertex="1" connectable="0">
          <mxGeometry x="20" y="10" width="80" height="120" as="geometry" />
        </mxCell>
        <mxCell id="2j8hGIhh0hBBkrBzc8hK-485" value="" style="rounded=1;whiteSpace=wrap;html=1;fontSize=15;fillColor=#f8cecc;movable=1;resizable=1;rotatable=1;deletable=1;editable=1;connectable=1;strokeColor=#b85450;" parent="2j8hGIhh0hBBkrBzc8hK-484" vertex="1">
          <mxGeometry width="80" height="120" as="geometry" />
        </mxCell>
        <mxCell id="2j8hGIhh0hBBkrBzc8hK-486" value="" style="aspect=fixed;perimeter=ellipsePerimeter;html=1;align=center;shadow=0;dashed=0;fontColor=#4277BB;labelBackgroundColor=#ffffff;fontSize=12;spacingTop=3;image;image=img/lib/ibm/applications/index.svg;imageBackground=none;movable=0;resizable=0;rotatable=0;deletable=0;editable=0;connectable=0;" parent="2j8hGIhh0hBBkrBzc8hK-484" vertex="1">
          <mxGeometry y="20" width="80" height="80" as="geometry" />
        </mxCell>
        <mxCell id="2j8hGIhh0hBBkrBzc8hK-487" value="&lt;div style=&quot;&quot;&gt;&lt;span style=&quot;font-size: 15px; background-color: initial;&quot;&gt;partition&amp;nbsp;&lt;/span&gt;&lt;b style=&quot;font-size: 15px; background-color: initial;&quot;&gt;A&lt;/b&gt;&lt;/div&gt;" style="text;html=1;strokeColor=none;fillColor=none;align=center;verticalAlign=middle;whiteSpace=wrap;rounded=0;movable=0;resizable=0;rotatable=0;deletable=0;editable=0;connectable=0;" parent="2j8hGIhh0hBBkrBzc8hK-484" vertex="1">
          <mxGeometry width="80" height="20" as="geometry" />
        </mxCell>
        <mxCell id="2j8hGIhh0hBBkrBzc8hK-488" value="&lt;span style=&quot;color: rgb(0, 0, 0); font-family: Helvetica; font-size: 15px; font-style: normal; font-variant-ligatures: normal; font-variant-caps: normal; letter-spacing: normal; orphans: 2; text-align: center; text-indent: 0px; text-transform: none; widows: 2; word-spacing: 0px; -webkit-text-stroke-width: 0px; background-color: initial; text-decoration-thickness: initial; text-decoration-style: initial; text-decoration-color: initial;&quot;&gt;version &lt;b&gt;1&lt;/b&gt;&lt;/span&gt;" style="text;html=1;strokeColor=none;fillColor=none;align=center;verticalAlign=middle;whiteSpace=wrap;rounded=0;fontSize=15;movable=0;resizable=0;rotatable=0;deletable=0;editable=0;connectable=0;" parent="2j8hGIhh0hBBkrBzc8hK-484" vertex="1">
          <mxGeometry y="100" width="80" height="20" as="geometry" />
        </mxCell>
        <mxCell id="2j8hGIhh0hBBkrBzc8hK-489" value="" style="group" parent="2j8hGIhh0hBBkrBzc8hK-477" vertex="1" connectable="0">
          <mxGeometry x="221" y="50" width="120" height="140" as="geometry" />
        </mxCell>
        <mxCell id="2j8hGIhh0hBBkrBzc8hK-490" value="" style="sketch=0;pointerEvents=1;shadow=0;dashed=0;html=1;strokeColor=none;fillColor=#E6E6E6;labelPosition=center;verticalLabelPosition=bottom;verticalAlign=top;align=center;outlineConnect=0;shape=mxgraph.veeam2.server;rounded=0;fontFamily=Helvetica;fontSize=13;fontColor=default;movable=1;resizable=1;rotatable=1;deletable=1;editable=1;connectable=1;" parent="2j8hGIhh0hBBkrBzc8hK-489" vertex="1">
          <mxGeometry width="120" height="140" as="geometry" />
        </mxCell>
        <mxCell id="2j8hGIhh0hBBkrBzc8hK-491" value="" style="group;movable=1;resizable=1;rotatable=1;deletable=1;editable=1;connectable=1;" parent="2j8hGIhh0hBBkrBzc8hK-489" vertex="1" connectable="0">
          <mxGeometry x="20" y="10" width="80" height="120" as="geometry" />
        </mxCell>
        <mxCell id="2j8hGIhh0hBBkrBzc8hK-492" value="" style="rounded=1;whiteSpace=wrap;html=1;fontSize=15;fillColor=#f8cecc;movable=1;resizable=1;rotatable=1;deletable=1;editable=1;connectable=1;strokeColor=#b85450;" parent="2j8hGIhh0hBBkrBzc8hK-491" vertex="1">
          <mxGeometry width="80" height="120" as="geometry" />
        </mxCell>
        <mxCell id="2j8hGIhh0hBBkrBzc8hK-493" value="" style="aspect=fixed;perimeter=ellipsePerimeter;html=1;align=center;shadow=0;dashed=0;fontColor=#4277BB;labelBackgroundColor=#ffffff;fontSize=12;spacingTop=3;image;image=img/lib/ibm/applications/index.svg;imageBackground=none;movable=0;resizable=0;rotatable=0;deletable=0;editable=0;connectable=0;" parent="2j8hGIhh0hBBkrBzc8hK-491" vertex="1">
          <mxGeometry y="20" width="80" height="80" as="geometry" />
        </mxCell>
        <mxCell id="2j8hGIhh0hBBkrBzc8hK-494" value="&lt;div style=&quot;&quot;&gt;&lt;span style=&quot;font-size: 15px; background-color: initial;&quot;&gt;partition &lt;b&gt;B&lt;/b&gt;&lt;/span&gt;&lt;/div&gt;" style="text;html=1;strokeColor=none;fillColor=none;align=center;verticalAlign=middle;whiteSpace=wrap;rounded=0;movable=1;resizable=1;rotatable=1;deletable=1;editable=1;connectable=1;locked=0;" parent="2j8hGIhh0hBBkrBzc8hK-491" vertex="1">
          <mxGeometry width="80" height="20" as="geometry" />
        </mxCell>
        <mxCell id="2j8hGIhh0hBBkrBzc8hK-495" value="&lt;span style=&quot;color: rgb(0, 0, 0); font-family: Helvetica; font-size: 15px; font-style: normal; font-variant-ligatures: normal; font-variant-caps: normal; letter-spacing: normal; orphans: 2; text-align: center; text-indent: 0px; text-transform: none; widows: 2; word-spacing: 0px; -webkit-text-stroke-width: 0px; background-color: initial; text-decoration-thickness: initial; text-decoration-style: initial; text-decoration-color: initial;&quot;&gt;version &lt;b&gt;1&lt;/b&gt;&lt;/span&gt;" style="text;html=1;strokeColor=none;fillColor=none;align=center;verticalAlign=middle;whiteSpace=wrap;rounded=0;fontSize=15;movable=0;resizable=0;rotatable=0;deletable=0;editable=0;connectable=0;" parent="2j8hGIhh0hBBkrBzc8hK-491" vertex="1">
          <mxGeometry y="100" width="80" height="20" as="geometry" />
        </mxCell>
        <mxCell id="2j8hGIhh0hBBkrBzc8hK-496" value="" style="group" parent="e7Cpro7utsQeBuYdya2P-1" vertex="1" connectable="0">
          <mxGeometry x="970" y="2150" width="120" height="140" as="geometry" />
        </mxCell>
        <mxCell id="2j8hGIhh0hBBkrBzc8hK-497" value="" style="sketch=0;pointerEvents=1;shadow=0;dashed=0;html=1;strokeColor=none;fillColor=#E6E6E6;labelPosition=center;verticalLabelPosition=bottom;verticalAlign=top;align=center;outlineConnect=0;shape=mxgraph.veeam2.server;rounded=0;fontFamily=Helvetica;fontSize=13;fontColor=default;movable=1;resizable=1;rotatable=1;deletable=1;editable=1;connectable=1;" parent="2j8hGIhh0hBBkrBzc8hK-496" vertex="1">
          <mxGeometry width="120" height="140" as="geometry" />
        </mxCell>
        <mxCell id="2j8hGIhh0hBBkrBzc8hK-498" value="" style="group;movable=1;resizable=1;rotatable=1;deletable=1;editable=1;connectable=1;" parent="2j8hGIhh0hBBkrBzc8hK-496" vertex="1" connectable="0">
          <mxGeometry x="20" y="10" width="80" height="120" as="geometry" />
        </mxCell>
        <mxCell id="2j8hGIhh0hBBkrBzc8hK-499" value="" style="rounded=1;whiteSpace=wrap;html=1;fontSize=15;fillColor=#f8cecc;movable=1;resizable=1;rotatable=1;deletable=1;editable=1;connectable=1;strokeColor=#b85450;" parent="2j8hGIhh0hBBkrBzc8hK-498" vertex="1">
          <mxGeometry width="80" height="120" as="geometry" />
        </mxCell>
        <mxCell id="2j8hGIhh0hBBkrBzc8hK-500" value="" style="aspect=fixed;perimeter=ellipsePerimeter;html=1;align=center;shadow=0;dashed=0;fontColor=#4277BB;labelBackgroundColor=#ffffff;fontSize=12;spacingTop=3;image;image=img/lib/ibm/applications/index.svg;imageBackground=none;movable=0;resizable=0;rotatable=0;deletable=0;editable=0;connectable=0;" parent="2j8hGIhh0hBBkrBzc8hK-498" vertex="1">
          <mxGeometry y="20" width="80" height="80" as="geometry" />
        </mxCell>
        <mxCell id="2j8hGIhh0hBBkrBzc8hK-501" value="&lt;div style=&quot;&quot;&gt;&lt;span style=&quot;font-size: 15px; background-color: initial;&quot;&gt;partition &lt;b&gt;C&lt;/b&gt;&lt;/span&gt;&lt;/div&gt;" style="text;html=1;strokeColor=none;fillColor=none;align=center;verticalAlign=middle;whiteSpace=wrap;rounded=0;movable=1;resizable=1;rotatable=1;deletable=1;editable=1;connectable=1;locked=0;" parent="2j8hGIhh0hBBkrBzc8hK-498" vertex="1">
          <mxGeometry width="80" height="20" as="geometry" />
        </mxCell>
        <mxCell id="2j8hGIhh0hBBkrBzc8hK-502" value="&lt;span style=&quot;color: rgb(0, 0, 0); font-family: Helvetica; font-size: 15px; font-style: normal; font-variant-ligatures: normal; font-variant-caps: normal; letter-spacing: normal; orphans: 2; text-align: center; text-indent: 0px; text-transform: none; widows: 2; word-spacing: 0px; -webkit-text-stroke-width: 0px; background-color: initial; text-decoration-thickness: initial; text-decoration-style: initial; text-decoration-color: initial;&quot;&gt;version &lt;b&gt;1&lt;/b&gt;&lt;/span&gt;" style="text;html=1;strokeColor=none;fillColor=none;align=center;verticalAlign=middle;whiteSpace=wrap;rounded=0;fontSize=15;movable=0;resizable=0;rotatable=0;deletable=0;editable=0;connectable=0;" parent="2j8hGIhh0hBBkrBzc8hK-498" vertex="1">
          <mxGeometry y="100" width="80" height="20" as="geometry" />
        </mxCell>
        <mxCell id="UJpK7ksH3YRqFfvnF_kW-94" value="&lt;span style=&quot;font-size: 20px;&quot;&gt;Когда трафик перестал поступать на старую версию, мы останавливаем на ней partician и partician gateway и удаляем старые индексы на машинах и готовимся получать на них новые индексы через некоторое время. Далее процесс повторяется&lt;br&gt;&lt;/span&gt;" style="text;html=1;strokeColor=none;fillColor=none;align=center;verticalAlign=middle;whiteSpace=wrap;rounded=0;shadow=0;fontFamily=Helvetica;fontSize=16;fontColor=default;" parent="e7Cpro7utsQeBuYdya2P-1" vertex="1">
          <mxGeometry x="89" y="2710" width="350" height="360" as="geometry" />
        </mxCell>
        <mxCell id="UJpK7ksH3YRqFfvnF_kW-95" value="" style="group" parent="e7Cpro7utsQeBuYdya2P-1" vertex="1" connectable="0">
          <mxGeometry x="1089" y="3170" width="80" height="120" as="geometry" />
        </mxCell>
        <mxCell id="UJpK7ksH3YRqFfvnF_kW-96" value="" style="rounded=1;whiteSpace=wrap;html=1;shadow=0;fontSize=15;movable=1;resizable=1;rotatable=1;deletable=1;editable=1;connectable=1;fillColor=#d5e8d4;strokeColor=#82b366;" parent="UJpK7ksH3YRqFfvnF_kW-95" vertex="1">
          <mxGeometry width="80" height="120" as="geometry" />
        </mxCell>
        <mxCell id="UJpK7ksH3YRqFfvnF_kW-97" value="" style="outlineConnect=0;dashed=0;verticalLabelPosition=bottom;verticalAlign=top;align=center;html=1;shape=mxgraph.aws3.application_load_balancer;fillColor=#F58534;gradientColor=none;fontSize=18;strokeColor=default;shadow=0;movable=1;resizable=1;rotatable=1;deletable=1;editable=1;connectable=1;" parent="UJpK7ksH3YRqFfvnF_kW-95" vertex="1">
          <mxGeometry y="40" width="80" height="80" as="geometry" />
        </mxCell>
        <mxCell id="UJpK7ksH3YRqFfvnF_kW-98" value="&lt;span style=&quot;font-size: 13px;&quot;&gt;TRAFFIC GATEWAY&lt;/span&gt;" style="text;html=1;strokeColor=none;fillColor=none;align=center;verticalAlign=middle;whiteSpace=wrap;rounded=0;shadow=0;fontSize=18;movable=1;resizable=1;rotatable=1;deletable=1;editable=1;connectable=1;" parent="UJpK7ksH3YRqFfvnF_kW-95" vertex="1">
          <mxGeometry width="80" height="40" as="geometry" />
        </mxCell>
        <mxCell id="UJpK7ksH3YRqFfvnF_kW-100" value="" style="group" parent="e7Cpro7utsQeBuYdya2P-1" vertex="1" connectable="0">
          <mxGeometry x="1169" y="2780" width="120" height="140" as="geometry" />
        </mxCell>
        <mxCell id="UJpK7ksH3YRqFfvnF_kW-101" value="" style="sketch=0;pointerEvents=1;shadow=0;dashed=0;html=1;strokeColor=none;fillColor=#E6E6E6;labelPosition=center;verticalLabelPosition=bottom;verticalAlign=top;align=center;outlineConnect=0;shape=mxgraph.veeam2.server;rounded=0;fontFamily=Helvetica;fontSize=13;fontColor=default;movable=1;resizable=1;rotatable=1;deletable=1;editable=1;connectable=1;" parent="UJpK7ksH3YRqFfvnF_kW-100" vertex="1">
          <mxGeometry width="120" height="140" as="geometry" />
        </mxCell>
        <mxCell id="UJpK7ksH3YRqFfvnF_kW-102" value="" style="group;movable=1;resizable=1;rotatable=1;deletable=1;editable=1;connectable=1;" parent="UJpK7ksH3YRqFfvnF_kW-100" vertex="1" connectable="0">
          <mxGeometry x="20" y="10" width="80" height="120" as="geometry" />
        </mxCell>
        <mxCell id="UJpK7ksH3YRqFfvnF_kW-103" value="" style="rounded=1;whiteSpace=wrap;html=1;fontSize=15;fillColor=#D5E8D4;movable=1;resizable=1;rotatable=1;deletable=1;editable=1;connectable=1;container=0;strokeColor=#006600;" parent="UJpK7ksH3YRqFfvnF_kW-102" vertex="1">
          <mxGeometry width="80" height="120" as="geometry" />
        </mxCell>
        <mxCell id="UJpK7ksH3YRqFfvnF_kW-104" value="&lt;div style=&quot;&quot;&gt;&lt;span style=&quot;font-size: 15px; background-color: initial;&quot;&gt;partition &lt;b&gt;A&lt;/b&gt;&lt;/span&gt;&lt;/div&gt;" style="text;html=1;strokeColor=none;fillColor=none;align=center;verticalAlign=middle;whiteSpace=wrap;rounded=0;movable=1;resizable=1;rotatable=1;deletable=1;editable=1;connectable=1;container=0;" parent="UJpK7ksH3YRqFfvnF_kW-102" vertex="1">
          <mxGeometry width="80" height="20" as="geometry" />
        </mxCell>
        <mxCell id="UJpK7ksH3YRqFfvnF_kW-105" value="&lt;span style=&quot;color: rgb(0, 0, 0); font-family: Helvetica; font-size: 15px; font-style: normal; font-variant-ligatures: normal; font-variant-caps: normal; letter-spacing: normal; orphans: 2; text-align: center; text-indent: 0px; text-transform: none; widows: 2; word-spacing: 0px; -webkit-text-stroke-width: 0px; background-color: initial; text-decoration-thickness: initial; text-decoration-style: initial; text-decoration-color: initial;&quot;&gt;version &lt;b&gt;2&lt;/b&gt;&lt;/span&gt;" style="text;html=1;strokeColor=none;fillColor=none;align=center;verticalAlign=middle;whiteSpace=wrap;rounded=0;fontSize=15;movable=1;resizable=1;rotatable=1;deletable=1;editable=1;connectable=1;container=0;" parent="UJpK7ksH3YRqFfvnF_kW-102" vertex="1">
          <mxGeometry y="100" width="80" height="20" as="geometry" />
        </mxCell>
        <mxCell id="UJpK7ksH3YRqFfvnF_kW-106" value="" style="aspect=fixed;perimeter=ellipsePerimeter;html=1;align=center;shadow=0;dashed=0;fontColor=#4277BB;labelBackgroundColor=#ffffff;fontSize=12;spacingTop=3;image;image=img/lib/ibm/applications/index.svg;imageBackground=none;movable=1;resizable=1;rotatable=1;deletable=1;editable=1;connectable=1;container=0;" parent="UJpK7ksH3YRqFfvnF_kW-102" vertex="1">
          <mxGeometry y="20" width="80" height="80" as="geometry" />
        </mxCell>
        <mxCell id="UJpK7ksH3YRqFfvnF_kW-107" style="edgeStyle=orthogonalEdgeStyle;rounded=0;orthogonalLoop=1;jettySize=auto;html=1;fontFamily=Helvetica;fontSize=16;fontColor=default;strokeWidth=3;fillColor=#d5e8d4;strokeColor=#82b366;" parent="e7Cpro7utsQeBuYdya2P-1" target="UJpK7ksH3YRqFfvnF_kW-101" edge="1">
          <mxGeometry relative="1" as="geometry">
            <mxPoint x="1388" y="3020" as="sourcePoint" />
          </mxGeometry>
        </mxCell>
        <mxCell id="UJpK7ksH3YRqFfvnF_kW-108" value="" style="group" parent="e7Cpro7utsQeBuYdya2P-1" vertex="1" connectable="0">
          <mxGeometry x="1568" y="2780" width="120" height="140" as="geometry" />
        </mxCell>
        <mxCell id="UJpK7ksH3YRqFfvnF_kW-109" value="" style="sketch=0;pointerEvents=1;shadow=0;dashed=0;html=1;strokeColor=none;fillColor=#E6E6E6;labelPosition=center;verticalLabelPosition=bottom;verticalAlign=top;align=center;outlineConnect=0;shape=mxgraph.veeam2.server;rounded=0;fontFamily=Helvetica;fontSize=13;fontColor=default;movable=1;resizable=1;rotatable=1;deletable=1;editable=1;connectable=1;" parent="UJpK7ksH3YRqFfvnF_kW-108" vertex="1">
          <mxGeometry width="120" height="140" as="geometry" />
        </mxCell>
        <mxCell id="UJpK7ksH3YRqFfvnF_kW-110" value="" style="group;movable=1;resizable=1;rotatable=1;deletable=1;editable=1;connectable=1;" parent="UJpK7ksH3YRqFfvnF_kW-108" vertex="1" connectable="0">
          <mxGeometry x="20" y="10" width="80" height="120" as="geometry" />
        </mxCell>
        <mxCell id="UJpK7ksH3YRqFfvnF_kW-111" value="" style="rounded=1;whiteSpace=wrap;html=1;fontSize=15;fillColor=#D5E8D4;movable=0;resizable=0;rotatable=0;deletable=0;editable=0;connectable=0;container=0;strokeColor=#006600;" parent="UJpK7ksH3YRqFfvnF_kW-110" vertex="1">
          <mxGeometry width="80" height="120" as="geometry" />
        </mxCell>
        <mxCell id="UJpK7ksH3YRqFfvnF_kW-112" value="&lt;div style=&quot;&quot;&gt;&lt;span style=&quot;font-size: 15px; background-color: initial;&quot;&gt;partition &lt;b&gt;C&lt;/b&gt;&lt;/span&gt;&lt;/div&gt;" style="text;html=1;strokeColor=none;fillColor=none;align=center;verticalAlign=middle;whiteSpace=wrap;rounded=0;movable=0;resizable=0;rotatable=0;deletable=0;editable=0;connectable=0;container=0;" parent="UJpK7ksH3YRqFfvnF_kW-110" vertex="1">
          <mxGeometry width="80" height="20" as="geometry" />
        </mxCell>
        <mxCell id="UJpK7ksH3YRqFfvnF_kW-113" value="&lt;span style=&quot;color: rgb(0, 0, 0); font-family: Helvetica; font-size: 15px; font-style: normal; font-variant-ligatures: normal; font-variant-caps: normal; letter-spacing: normal; orphans: 2; text-align: center; text-indent: 0px; text-transform: none; widows: 2; word-spacing: 0px; -webkit-text-stroke-width: 0px; background-color: initial; text-decoration-thickness: initial; text-decoration-style: initial; text-decoration-color: initial;&quot;&gt;version &lt;b&gt;2&lt;/b&gt;&lt;/span&gt;" style="text;html=1;strokeColor=none;fillColor=none;align=center;verticalAlign=middle;whiteSpace=wrap;rounded=0;fontSize=15;movable=1;resizable=1;rotatable=1;deletable=1;editable=1;connectable=1;container=0;locked=0;" parent="UJpK7ksH3YRqFfvnF_kW-110" vertex="1">
          <mxGeometry y="100" width="80" height="20" as="geometry" />
        </mxCell>
        <mxCell id="UJpK7ksH3YRqFfvnF_kW-114" value="" style="aspect=fixed;perimeter=ellipsePerimeter;html=1;align=center;shadow=0;dashed=0;fontColor=#4277BB;labelBackgroundColor=#ffffff;fontSize=12;spacingTop=3;image;image=img/lib/ibm/applications/index.svg;imageBackground=none;movable=0;resizable=0;rotatable=0;deletable=0;editable=0;connectable=0;container=0;" parent="UJpK7ksH3YRqFfvnF_kW-110" vertex="1">
          <mxGeometry y="20" width="80" height="80" as="geometry" />
        </mxCell>
        <mxCell id="UJpK7ksH3YRqFfvnF_kW-115" value="" style="group" parent="e7Cpro7utsQeBuYdya2P-1" vertex="1" connectable="0">
          <mxGeometry x="1368" y="2780" width="120" height="140" as="geometry" />
        </mxCell>
        <mxCell id="UJpK7ksH3YRqFfvnF_kW-116" value="" style="sketch=0;pointerEvents=1;shadow=0;dashed=0;html=1;strokeColor=none;fillColor=#E6E6E6;labelPosition=center;verticalLabelPosition=bottom;verticalAlign=top;align=center;outlineConnect=0;shape=mxgraph.veeam2.server;rounded=0;fontFamily=Helvetica;fontSize=13;fontColor=default;movable=1;resizable=1;rotatable=1;deletable=1;editable=1;connectable=1;" parent="UJpK7ksH3YRqFfvnF_kW-115" vertex="1">
          <mxGeometry width="120" height="140" as="geometry" />
        </mxCell>
        <mxCell id="UJpK7ksH3YRqFfvnF_kW-117" value="" style="group;movable=1;resizable=1;rotatable=1;deletable=1;editable=1;connectable=1;" parent="UJpK7ksH3YRqFfvnF_kW-115" vertex="1" connectable="0">
          <mxGeometry x="20" y="10" width="80" height="120" as="geometry" />
        </mxCell>
        <mxCell id="UJpK7ksH3YRqFfvnF_kW-118" value="" style="rounded=1;whiteSpace=wrap;html=1;fontSize=15;fillColor=#D5E8D4;movable=0;resizable=0;rotatable=0;deletable=0;editable=0;connectable=0;container=0;strokeColor=#006600;" parent="UJpK7ksH3YRqFfvnF_kW-117" vertex="1">
          <mxGeometry width="80" height="120" as="geometry" />
        </mxCell>
        <mxCell id="UJpK7ksH3YRqFfvnF_kW-119" value="&lt;div style=&quot;&quot;&gt;&lt;span style=&quot;font-size: 15px; background-color: initial;&quot;&gt;partition &lt;b&gt;B&lt;/b&gt;&lt;/span&gt;&lt;/div&gt;" style="text;html=1;strokeColor=none;fillColor=none;align=center;verticalAlign=middle;whiteSpace=wrap;rounded=0;movable=0;resizable=0;rotatable=0;deletable=0;editable=0;connectable=0;container=0;" parent="UJpK7ksH3YRqFfvnF_kW-117" vertex="1">
          <mxGeometry width="80" height="20" as="geometry" />
        </mxCell>
        <mxCell id="UJpK7ksH3YRqFfvnF_kW-120" value="&lt;span style=&quot;color: rgb(0, 0, 0); font-family: Helvetica; font-size: 15px; font-style: normal; font-variant-ligatures: normal; font-variant-caps: normal; letter-spacing: normal; orphans: 2; text-align: center; text-indent: 0px; text-transform: none; widows: 2; word-spacing: 0px; -webkit-text-stroke-width: 0px; background-color: initial; text-decoration-thickness: initial; text-decoration-style: initial; text-decoration-color: initial;&quot;&gt;version &lt;b&gt;2&lt;/b&gt;&lt;/span&gt;" style="text;html=1;strokeColor=none;fillColor=none;align=center;verticalAlign=middle;whiteSpace=wrap;rounded=0;fontSize=15;movable=1;resizable=1;rotatable=1;deletable=1;editable=1;connectable=1;container=0;locked=0;" parent="UJpK7ksH3YRqFfvnF_kW-117" vertex="1">
          <mxGeometry y="100" width="80" height="20" as="geometry" />
        </mxCell>
        <mxCell id="UJpK7ksH3YRqFfvnF_kW-121" value="" style="aspect=fixed;perimeter=ellipsePerimeter;html=1;align=center;shadow=0;dashed=0;fontColor=#4277BB;labelBackgroundColor=#ffffff;fontSize=12;spacingTop=3;image;image=img/lib/ibm/applications/index.svg;imageBackground=none;movable=0;resizable=0;rotatable=0;deletable=0;editable=0;connectable=0;container=0;" parent="UJpK7ksH3YRqFfvnF_kW-117" vertex="1">
          <mxGeometry y="20" width="80" height="80" as="geometry" />
        </mxCell>
        <mxCell id="UJpK7ksH3YRqFfvnF_kW-122" style="edgeStyle=orthogonalEdgeStyle;rounded=0;orthogonalLoop=1;jettySize=auto;html=1;strokeWidth=3;fontFamily=Helvetica;fontSize=16;fontColor=default;fillColor=#d5e8d4;strokeColor=#82b366;" parent="e7Cpro7utsQeBuYdya2P-1" target="UJpK7ksH3YRqFfvnF_kW-116" edge="1">
          <mxGeometry relative="1" as="geometry">
            <mxPoint x="1428" y="2960" as="sourcePoint" />
          </mxGeometry>
        </mxCell>
        <mxCell id="UJpK7ksH3YRqFfvnF_kW-123" style="edgeStyle=orthogonalEdgeStyle;rounded=0;orthogonalLoop=1;jettySize=auto;html=1;strokeWidth=3;fontFamily=Helvetica;fontSize=16;fontColor=default;fillColor=#d5e8d4;strokeColor=#82b366;" parent="e7Cpro7utsQeBuYdya2P-1" target="UJpK7ksH3YRqFfvnF_kW-109" edge="1">
          <mxGeometry relative="1" as="geometry">
            <mxPoint x="1468" y="3020" as="sourcePoint" />
          </mxGeometry>
        </mxCell>
        <mxCell id="UJpK7ksH3YRqFfvnF_kW-124" value="" style="group" parent="e7Cpro7utsQeBuYdya2P-1" vertex="1" connectable="0">
          <mxGeometry x="1388" y="2960" width="80" height="120" as="geometry" />
        </mxCell>
        <mxCell id="UJpK7ksH3YRqFfvnF_kW-125" value="" style="rounded=1;whiteSpace=wrap;html=1;shadow=0;fontSize=15;movable=1;resizable=1;rotatable=1;deletable=1;editable=1;connectable=1;fillColor=#d5e8d4;strokeColor=#82b366;" parent="UJpK7ksH3YRqFfvnF_kW-124" vertex="1">
          <mxGeometry width="80" height="120" as="geometry" />
        </mxCell>
        <mxCell id="UJpK7ksH3YRqFfvnF_kW-126" value="" style="outlineConnect=0;dashed=0;verticalLabelPosition=bottom;verticalAlign=top;align=center;html=1;shape=mxgraph.aws3.application_load_balancer;fillColor=#F58534;gradientColor=none;fontSize=18;strokeColor=default;shadow=0;movable=1;resizable=1;rotatable=1;deletable=1;editable=1;connectable=1;" parent="UJpK7ksH3YRqFfvnF_kW-124" vertex="1">
          <mxGeometry y="40" width="80" height="80" as="geometry" />
        </mxCell>
        <mxCell id="UJpK7ksH3YRqFfvnF_kW-127" value="&lt;font style=&quot;font-size: 13px;&quot;&gt;PARTICIAN&amp;nbsp;&lt;br&gt;GATEWAY&lt;/font&gt;" style="text;html=1;strokeColor=none;fillColor=none;align=center;verticalAlign=middle;whiteSpace=wrap;rounded=0;shadow=0;fontSize=18;movable=1;resizable=1;rotatable=1;deletable=1;editable=1;connectable=1;" parent="UJpK7ksH3YRqFfvnF_kW-124" vertex="1">
          <mxGeometry width="80" height="40" as="geometry" />
        </mxCell>
        <mxCell id="UJpK7ksH3YRqFfvnF_kW-128" style="edgeStyle=orthogonalEdgeStyle;rounded=0;orthogonalLoop=1;jettySize=auto;html=1;strokeWidth=3;fontFamily=Helvetica;fontSize=16;fontColor=default;fillColor=#d5e8d4;strokeColor=#82b366;exitX=0.5;exitY=0;exitDx=0;exitDy=0;" parent="e7Cpro7utsQeBuYdya2P-1" source="UJpK7ksH3YRqFfvnF_kW-98" target="UJpK7ksH3YRqFfvnF_kW-126" edge="1">
          <mxGeometry relative="1" as="geometry">
            <mxPoint x="1131" y="3150" as="sourcePoint" />
            <mxPoint x="829" y="3060" as="targetPoint" />
          </mxGeometry>
        </mxCell>
        <mxCell id="UJpK7ksH3YRqFfvnF_kW-130" value="NEW version" style="swimlane;whiteSpace=wrap;html=1;" parent="e7Cpro7utsQeBuYdya2P-1" vertex="1">
          <mxGeometry x="1149" y="2730" width="560" height="380" as="geometry" />
        </mxCell>
        <mxCell id="e7Cpro7utsQeBuYdya2P-56" value="" style="group" vertex="1" connectable="0" parent="e7Cpro7utsQeBuYdya2P-1">
          <mxGeometry x="569" y="2780" width="120" height="140" as="geometry" />
        </mxCell>
        <mxCell id="e7Cpro7utsQeBuYdya2P-57" value="" style="sketch=0;pointerEvents=1;shadow=0;dashed=0;html=1;strokeColor=none;fillColor=#E6E6E6;labelPosition=center;verticalLabelPosition=bottom;verticalAlign=top;align=center;outlineConnect=0;shape=mxgraph.veeam2.server;rounded=0;fontFamily=Helvetica;fontSize=13;fontColor=default;movable=1;resizable=1;rotatable=1;deletable=1;editable=1;connectable=1;" vertex="1" parent="e7Cpro7utsQeBuYdya2P-56">
          <mxGeometry width="120" height="140" as="geometry" />
        </mxCell>
        <mxCell id="e7Cpro7utsQeBuYdya2P-58" value="" style="group;movable=1;resizable=1;rotatable=1;deletable=1;editable=1;connectable=1;locked=0;" vertex="1" connectable="0" parent="e7Cpro7utsQeBuYdya2P-56">
          <mxGeometry x="20" y="10" width="80" height="120" as="geometry" />
        </mxCell>
        <mxCell id="e7Cpro7utsQeBuYdya2P-59" value="" style="aspect=fixed;perimeter=ellipsePerimeter;html=1;align=center;shadow=0;dashed=0;fontColor=#4277BB;labelBackgroundColor=#ffffff;fontSize=12;spacingTop=3;image;image=img/lib/ibm/applications/index.svg;imageBackground=none;movable=0;resizable=0;rotatable=0;deletable=0;editable=0;connectable=0;" vertex="1" parent="e7Cpro7utsQeBuYdya2P-58">
          <mxGeometry y="20" width="80" height="80" as="geometry" />
        </mxCell>
        <mxCell id="e7Cpro7utsQeBuYdya2P-60" value="&lt;div style=&quot;&quot;&gt;&lt;span style=&quot;font-size: 15px; background-color: initial;&quot;&gt;partition&amp;nbsp;&lt;/span&gt;&lt;b style=&quot;font-size: 15px; background-color: initial;&quot;&gt;A&lt;/b&gt;&lt;/div&gt;" style="text;html=1;strokeColor=none;fillColor=none;align=center;verticalAlign=middle;whiteSpace=wrap;rounded=0;movable=0;resizable=0;rotatable=0;deletable=0;editable=0;connectable=0;" vertex="1" parent="e7Cpro7utsQeBuYdya2P-58">
          <mxGeometry width="80" height="20" as="geometry" />
        </mxCell>
        <mxCell id="e7Cpro7utsQeBuYdya2P-61" value="&lt;span style=&quot;color: rgb(0, 0, 0); font-family: Helvetica; font-size: 15px; font-style: normal; font-variant-ligatures: normal; font-variant-caps: normal; letter-spacing: normal; orphans: 2; text-align: center; text-indent: 0px; text-transform: none; widows: 2; word-spacing: 0px; -webkit-text-stroke-width: 0px; background-color: initial; text-decoration-thickness: initial; text-decoration-style: initial; text-decoration-color: initial;&quot;&gt;version &lt;b&gt;1&lt;/b&gt;&lt;/span&gt;" style="text;html=1;strokeColor=none;fillColor=none;align=center;verticalAlign=middle;whiteSpace=wrap;rounded=0;fontSize=15;movable=0;resizable=0;rotatable=0;deletable=0;editable=0;connectable=0;" vertex="1" parent="e7Cpro7utsQeBuYdya2P-58">
          <mxGeometry y="100" width="80" height="20" as="geometry" />
        </mxCell>
        <mxCell id="e7Cpro7utsQeBuYdya2P-62" value="" style="rounded=1;whiteSpace=wrap;html=1;fontSize=15;fillColor=none;movable=1;resizable=1;rotatable=1;deletable=1;editable=1;connectable=1;locked=0;" vertex="1" parent="e7Cpro7utsQeBuYdya2P-58">
          <mxGeometry width="80" height="120" as="geometry" />
        </mxCell>
        <mxCell id="e7Cpro7utsQeBuYdya2P-63" value="" style="group" vertex="1" connectable="0" parent="e7Cpro7utsQeBuYdya2P-1">
          <mxGeometry x="968" y="2780" width="120" height="140" as="geometry" />
        </mxCell>
        <mxCell id="e7Cpro7utsQeBuYdya2P-64" value="" style="sketch=0;pointerEvents=1;shadow=0;dashed=0;html=1;strokeColor=none;fillColor=#E6E6E6;labelPosition=center;verticalLabelPosition=bottom;verticalAlign=top;align=center;outlineConnect=0;shape=mxgraph.veeam2.server;rounded=0;fontFamily=Helvetica;fontSize=13;fontColor=default;movable=1;resizable=1;rotatable=1;deletable=1;editable=1;connectable=1;" vertex="1" parent="e7Cpro7utsQeBuYdya2P-63">
          <mxGeometry width="120" height="140" as="geometry" />
        </mxCell>
        <mxCell id="e7Cpro7utsQeBuYdya2P-65" value="" style="group" vertex="1" connectable="0" parent="e7Cpro7utsQeBuYdya2P-1">
          <mxGeometry x="768" y="2780" width="120" height="140" as="geometry" />
        </mxCell>
        <mxCell id="e7Cpro7utsQeBuYdya2P-66" value="" style="sketch=0;pointerEvents=1;shadow=0;dashed=0;html=1;strokeColor=none;fillColor=#E6E6E6;labelPosition=center;verticalLabelPosition=bottom;verticalAlign=top;align=center;outlineConnect=0;shape=mxgraph.veeam2.server;rounded=0;fontFamily=Helvetica;fontSize=13;fontColor=default;movable=1;resizable=1;rotatable=1;deletable=1;editable=1;connectable=1;" vertex="1" parent="e7Cpro7utsQeBuYdya2P-65">
          <mxGeometry width="120" height="140" as="geometry" />
        </mxCell>
        <mxCell id="e7Cpro7utsQeBuYdya2P-67" value="" style="group;movable=1;resizable=1;rotatable=1;deletable=1;editable=1;connectable=1;locked=0;" vertex="1" connectable="0" parent="e7Cpro7utsQeBuYdya2P-65">
          <mxGeometry x="20" y="10" width="80" height="120" as="geometry" />
        </mxCell>
        <mxCell id="e7Cpro7utsQeBuYdya2P-68" value="" style="group;movable=0;resizable=0;rotatable=0;deletable=0;editable=0;connectable=0;" vertex="1" connectable="0" parent="e7Cpro7utsQeBuYdya2P-67">
          <mxGeometry width="80" height="120" as="geometry" />
        </mxCell>
        <mxCell id="e7Cpro7utsQeBuYdya2P-69" value="" style="aspect=fixed;perimeter=ellipsePerimeter;html=1;align=center;shadow=0;dashed=0;fontColor=#4277BB;labelBackgroundColor=#ffffff;fontSize=12;spacingTop=3;image;image=img/lib/ibm/applications/index.svg;imageBackground=none;movable=0;resizable=0;rotatable=0;deletable=0;editable=0;connectable=0;" vertex="1" parent="e7Cpro7utsQeBuYdya2P-68">
          <mxGeometry y="20" width="80" height="80" as="geometry" />
        </mxCell>
        <mxCell id="e7Cpro7utsQeBuYdya2P-70" value="&lt;div style=&quot;&quot;&gt;&lt;span style=&quot;font-size: 15px; background-color: initial;&quot;&gt;partition &lt;b&gt;B&lt;/b&gt;&lt;/span&gt;&lt;/div&gt;" style="text;html=1;strokeColor=none;fillColor=none;align=center;verticalAlign=middle;whiteSpace=wrap;rounded=0;movable=0;resizable=0;rotatable=0;deletable=0;editable=0;connectable=0;" vertex="1" parent="e7Cpro7utsQeBuYdya2P-68">
          <mxGeometry width="80" height="20" as="geometry" />
        </mxCell>
        <mxCell id="e7Cpro7utsQeBuYdya2P-71" value="&lt;span style=&quot;color: rgb(0, 0, 0); font-family: Helvetica; font-size: 15px; font-style: normal; font-variant-ligatures: normal; font-variant-caps: normal; letter-spacing: normal; orphans: 2; text-align: center; text-indent: 0px; text-transform: none; widows: 2; word-spacing: 0px; -webkit-text-stroke-width: 0px; background-color: initial; text-decoration-thickness: initial; text-decoration-style: initial; text-decoration-color: initial;&quot;&gt;version &lt;b&gt;1&lt;/b&gt;&lt;/span&gt;" style="text;html=1;strokeColor=none;fillColor=none;align=center;verticalAlign=middle;whiteSpace=wrap;rounded=0;fontSize=15;movable=0;resizable=0;rotatable=0;deletable=0;editable=0;connectable=0;" vertex="1" parent="e7Cpro7utsQeBuYdya2P-68">
          <mxGeometry y="100" width="80" height="20" as="geometry" />
        </mxCell>
        <mxCell id="e7Cpro7utsQeBuYdya2P-72" value="" style="rounded=1;whiteSpace=wrap;html=1;fontSize=15;fillColor=none;movable=1;resizable=1;rotatable=1;deletable=1;editable=1;connectable=1;locked=0;" vertex="1" parent="e7Cpro7utsQeBuYdya2P-67">
          <mxGeometry width="80" height="120" as="geometry" />
        </mxCell>
        <mxCell id="e7Cpro7utsQeBuYdya2P-73" style="edgeStyle=orthogonalEdgeStyle;rounded=0;orthogonalLoop=1;jettySize=auto;html=1;strokeWidth=3;fontFamily=Helvetica;fontSize=16;fontColor=default;fillColor=#f5f5f5;strokeColor=#666666;" edge="1" parent="e7Cpro7utsQeBuYdya2P-1" target="e7Cpro7utsQeBuYdya2P-66">
          <mxGeometry relative="1" as="geometry">
            <mxPoint x="828" y="2960" as="sourcePoint" />
          </mxGeometry>
        </mxCell>
        <mxCell id="e7Cpro7utsQeBuYdya2P-74" style="edgeStyle=orthogonalEdgeStyle;rounded=0;orthogonalLoop=1;jettySize=auto;html=1;strokeWidth=3;fontFamily=Helvetica;fontSize=16;fontColor=default;fillColor=#f5f5f5;strokeColor=#666666;" edge="1" parent="e7Cpro7utsQeBuYdya2P-1" target="e7Cpro7utsQeBuYdya2P-64">
          <mxGeometry relative="1" as="geometry">
            <mxPoint x="869" y="3020" as="sourcePoint" />
          </mxGeometry>
        </mxCell>
        <mxCell id="e7Cpro7utsQeBuYdya2P-75" value="OLD version" style="swimlane;whiteSpace=wrap;html=1;startSize=23;" vertex="1" parent="e7Cpro7utsQeBuYdya2P-1">
          <mxGeometry x="549" y="2730" width="560" height="380" as="geometry" />
        </mxCell>
        <mxCell id="e7Cpro7utsQeBuYdya2P-76" value="" style="group;movable=1;resizable=1;rotatable=1;deletable=1;editable=1;connectable=1;" vertex="1" connectable="0" parent="e7Cpro7utsQeBuYdya2P-75">
          <mxGeometry x="239" y="230" width="80" height="120" as="geometry" />
        </mxCell>
        <mxCell id="e7Cpro7utsQeBuYdya2P-77" value="" style="rounded=1;whiteSpace=wrap;html=1;shadow=0;fontSize=15;movable=1;resizable=1;rotatable=1;deletable=1;editable=1;connectable=1;fillColor=#f8cecc;strokeColor=#b85450;" vertex="1" parent="e7Cpro7utsQeBuYdya2P-76">
          <mxGeometry width="80" height="120" as="geometry" />
        </mxCell>
        <mxCell id="e7Cpro7utsQeBuYdya2P-78" value="" style="outlineConnect=0;dashed=0;verticalLabelPosition=bottom;verticalAlign=top;align=center;html=1;shape=mxgraph.aws3.application_load_balancer;fillColor=#F58534;gradientColor=none;fontSize=18;strokeColor=default;shadow=0;movable=1;resizable=1;rotatable=1;deletable=1;editable=1;connectable=1;" vertex="1" parent="e7Cpro7utsQeBuYdya2P-76">
          <mxGeometry y="40" width="80" height="80" as="geometry" />
        </mxCell>
        <mxCell id="e7Cpro7utsQeBuYdya2P-79" value="&lt;font style=&quot;font-size: 13px;&quot;&gt;PARTICIAN&amp;nbsp;&lt;br&gt;GATEWAY&lt;/font&gt;" style="text;html=1;strokeColor=none;fillColor=none;align=center;verticalAlign=middle;whiteSpace=wrap;rounded=0;shadow=0;fontSize=18;movable=1;resizable=1;rotatable=1;deletable=1;editable=1;connectable=1;" vertex="1" parent="e7Cpro7utsQeBuYdya2P-76">
          <mxGeometry width="80" height="40" as="geometry" />
        </mxCell>
        <mxCell id="e7Cpro7utsQeBuYdya2P-80" value="" style="group;movable=1;resizable=1;rotatable=1;deletable=1;editable=1;connectable=1;locked=0;" vertex="1" connectable="0" parent="e7Cpro7utsQeBuYdya2P-1">
          <mxGeometry x="989" y="2790" width="80" height="120" as="geometry" />
        </mxCell>
        <mxCell id="e7Cpro7utsQeBuYdya2P-81" value="" style="aspect=fixed;perimeter=ellipsePerimeter;html=1;align=center;shadow=0;dashed=0;fontColor=#4277BB;labelBackgroundColor=#ffffff;fontSize=12;spacingTop=3;image;image=img/lib/ibm/applications/index.svg;imageBackground=none;movable=0;resizable=0;rotatable=0;deletable=0;editable=0;connectable=0;" vertex="1" parent="e7Cpro7utsQeBuYdya2P-80">
          <mxGeometry y="20" width="80" height="80" as="geometry" />
        </mxCell>
        <mxCell id="e7Cpro7utsQeBuYdya2P-82" value="&lt;div style=&quot;&quot;&gt;&lt;span style=&quot;font-size: 15px; background-color: initial;&quot;&gt;partition &lt;b&gt;C&lt;/b&gt;&lt;/span&gt;&lt;/div&gt;" style="text;html=1;strokeColor=none;fillColor=none;align=center;verticalAlign=middle;whiteSpace=wrap;rounded=0;movable=0;resizable=0;rotatable=0;deletable=0;editable=0;connectable=0;" vertex="1" parent="e7Cpro7utsQeBuYdya2P-80">
          <mxGeometry width="80" height="20" as="geometry" />
        </mxCell>
        <mxCell id="e7Cpro7utsQeBuYdya2P-83" value="&lt;span style=&quot;color: rgb(0, 0, 0); font-family: Helvetica; font-size: 15px; font-style: normal; font-variant-ligatures: normal; font-variant-caps: normal; letter-spacing: normal; orphans: 2; text-align: center; text-indent: 0px; text-transform: none; widows: 2; word-spacing: 0px; -webkit-text-stroke-width: 0px; background-color: initial; text-decoration-thickness: initial; text-decoration-style: initial; text-decoration-color: initial;&quot;&gt;version &lt;b&gt;1&lt;/b&gt;&lt;/span&gt;" style="text;html=1;strokeColor=none;fillColor=none;align=center;verticalAlign=middle;whiteSpace=wrap;rounded=0;fontSize=15;movable=0;resizable=0;rotatable=0;deletable=0;editable=0;connectable=0;" vertex="1" parent="e7Cpro7utsQeBuYdya2P-80">
          <mxGeometry y="100" width="80" height="20" as="geometry" />
        </mxCell>
        <mxCell id="e7Cpro7utsQeBuYdya2P-84" value="" style="rounded=1;whiteSpace=wrap;html=1;fontSize=15;fillColor=none;movable=1;resizable=1;rotatable=1;deletable=1;editable=1;connectable=1;locked=0;" vertex="1" parent="e7Cpro7utsQeBuYdya2P-80">
          <mxGeometry width="80" height="120" as="geometry" />
        </mxCell>
        <mxCell id="e7Cpro7utsQeBuYdya2P-85" style="edgeStyle=orthogonalEdgeStyle;rounded=0;orthogonalLoop=1;jettySize=auto;html=1;fontFamily=Helvetica;fontSize=16;fontColor=default;strokeWidth=3;fillColor=#f5f5f5;strokeColor=#666666;exitX=0;exitY=0.5;exitDx=0;exitDy=0;" edge="1" parent="e7Cpro7utsQeBuYdya2P-1" source="e7Cpro7utsQeBuYdya2P-77" target="e7Cpro7utsQeBuYdya2P-57">
          <mxGeometry relative="1" as="geometry">
            <mxPoint x="799" y="3030" as="sourcePoint" />
            <mxPoint x="639" y="2930" as="targetPoint" />
          </mxGeometry>
        </mxCell>
        <mxCell id="e7Cpro7utsQeBuYdya2P-88" style="edgeStyle=orthogonalEdgeStyle;rounded=0;orthogonalLoop=1;jettySize=auto;html=1;strokeWidth=3;fontFamily=Helvetica;fontSize=16;fontColor=default;fillColor=#d5e8d4;strokeColor=#82b366;entryX=0.5;entryY=1;entryDx=0;entryDy=0;exitX=0.5;exitY=0;exitDx=0;exitDy=0;" edge="1" parent="e7Cpro7utsQeBuYdya2P-1" source="2j8hGIhh0hBBkrBzc8hK-441" target="2j8hGIhh0hBBkrBzc8hK-478">
          <mxGeometry relative="1" as="geometry">
            <mxPoint x="1128" y="2520" as="sourcePoint" />
            <mxPoint x="1437" y="2460" as="targetPoint" />
          </mxGeometry>
        </mxCell>
        <mxCell id="e7Cpro7utsQeBuYdya2P-6" style="edgeStyle=orthogonalEdgeStyle;rounded=0;orthogonalLoop=1;jettySize=auto;html=1;entryX=0.525;entryY=-0.003;entryDx=0;entryDy=0;entryPerimeter=0;" edge="1" parent="1" source="UJpK7ksH3YRqFfvnF_kW-206" target="UJpK7ksH3YRqFfvnF_kW-344">
          <mxGeometry relative="1" as="geometry">
            <Array as="points">
              <mxPoint x="4003" y="-770" />
              <mxPoint x="4132" y="-770" />
            </Array>
          </mxGeometry>
        </mxCell>
        <mxCell id="e7Cpro7utsQeBuYdya2P-7" value="да" style="edgeLabel;html=1;align=center;verticalAlign=middle;resizable=0;points=[];" vertex="1" connectable="0" parent="e7Cpro7utsQeBuYdya2P-6">
          <mxGeometry x="0.0357" y="-2" relative="1" as="geometry">
            <mxPoint as="offset" />
          </mxGeometry>
        </mxCell>
        <mxCell id="e7Cpro7utsQeBuYdya2P-12" style="edgeStyle=orthogonalEdgeStyle;rounded=0;orthogonalLoop=1;jettySize=auto;html=1;entryX=0.5;entryY=1;entryDx=0;entryDy=0;" edge="1" parent="1" source="e7Cpro7utsQeBuYdya2P-10" target="e7Cpro7utsQeBuYdya2P-14">
          <mxGeometry relative="1" as="geometry">
            <mxPoint x="4998" y="-1059.9999999999995" as="targetPoint" />
          </mxGeometry>
        </mxCell>
        <mxCell id="e7Cpro7utsQeBuYdya2P-10" value="log_upload_index" style="shape=document;whiteSpace=wrap;html=1;boundedLbl=1;" vertex="1" parent="1">
          <mxGeometry x="4608" y="-940" width="120" height="80" as="geometry" />
        </mxCell>
        <mxCell id="e7Cpro7utsQeBuYdya2P-9" style="edgeStyle=orthogonalEdgeStyle;rounded=0;orthogonalLoop=1;jettySize=auto;html=1;exitX=1;exitY=0.5;exitDx=0;exitDy=0;" edge="1" parent="1" source="UJpK7ksH3YRqFfvnF_kW-206" target="e7Cpro7utsQeBuYdya2P-10">
          <mxGeometry relative="1" as="geometry">
            <mxPoint x="4668" y="-900" as="targetPoint" />
          </mxGeometry>
        </mxCell>
        <mxCell id="e7Cpro7utsQeBuYdya2P-14" value="ELK" style="swimlane;whiteSpace=wrap;html=1;" vertex="1" parent="1">
          <mxGeometry x="5088" y="-1404" width="200" height="200" as="geometry" />
        </mxCell>
        <mxCell id="e7Cpro7utsQeBuYdya2P-15" value="Elastic search&lt;br style=&quot;font-size: 26px;&quot;&gt;Logstash&lt;br style=&quot;font-size: 26px;&quot;&gt;Kibana" style="text;html=1;align=center;verticalAlign=middle;resizable=0;points=[];autosize=1;strokeColor=none;fillColor=none;fontSize=26;" vertex="1" parent="e7Cpro7utsQeBuYdya2P-14">
          <mxGeometry x="5" y="45" width="190" height="110" as="geometry" />
        </mxCell>
        <mxCell id="e7Cpro7utsQeBuYdya2P-24" style="edgeStyle=orthogonalEdgeStyle;rounded=0;orthogonalLoop=1;jettySize=auto;html=1;" edge="1" parent="1" source="e7Cpro7utsQeBuYdya2P-22" target="UJpK7ksH3YRqFfvnF_kW-183">
          <mxGeometry relative="1" as="geometry">
            <Array as="points">
              <mxPoint x="4305" y="-1480" />
              <mxPoint x="4003" y="-1480" />
            </Array>
          </mxGeometry>
        </mxCell>
      </root>
    </mxGraphModel>
  </diagram>
</mxfile>
